<svg width="72" height="72" viewBox="0 0 72 72" fill="none" xmlns="http://www.w3.org/2000/svg">
<path d="M71.7483 35.047C71.6763 28.7353 70.7772 22.5674 69.051 16.7592C67.2707 10.6993 64.6454 5.12487 61.2288 0.197798L61.0849 0L60.8332 0.0179776C53.8382 0.467528 47.8861 1.2947 42.6534 2.55344C36.8452 3.93806 31.7203 5.88012 27.009 8.48751C17.011 14.008 8.48751 22.6933 0.143854 35.8382L0 36.0539L0.125876 36.2697C2.98502 41.4845 6.61739 46.3576 10.9151 50.7273C15.1049 54.989 19.8701 58.7473 25.1029 61.8761C30.2997 64.987 35.8562 67.4326 41.6284 69.1588C47.4905 70.9031 53.4965 71.8561 59.4665 72H59.4845L62.056 71.8921L62.1818 71.6943C62.3077 71.4785 62.4336 71.2627 62.5594 71.047C62.6314 70.9031 62.7213 70.7592 62.7932 70.6154C65.7603 65.3826 68.044 59.6284 69.5724 53.5325C71.0829 47.4725 71.8202 41.2687 71.7483 35.047ZM59.3587 68.1159C37.3307 67.5944 15.8062 54.989 4.35165 35.9281C16.8492 16.0759 36.8991 4.42357 59.4486 3.88411C59.8442 4.62137 60.2038 5.37662 60.5275 6.0959L60.5455 6.11389C70.7233 25.5704 70.2378 51.015 59.3587 68.1159Z" fill="#C1272D"/>
<path d="M29.8683 52.2926C30.3179 52.3106 30.7854 52.3286 31.2529 52.3286C43.7145 52.3286 54.6116 45.5494 60.4378 35.4974C54.6116 25.4275 43.7145 18.6663 31.2529 18.6663C31.0192 18.6663 30.8034 18.6663 30.5696 18.6663C27.4947 23.7552 25.7145 29.7072 25.7145 36.0908C25.7145 41.953 27.225 47.4735 29.8683 52.2926Z" fill="#C1272D"/>
</svg>
