<svg width="96" height="76" viewBox="0 0 96 76" fill="none" xmlns="http://www.w3.org/2000/svg">
<path d="M74.8913 41.6068C73.033 41.6068 71.3605 40.2983 70.9888 38.4291L70.7101 37.3075C70.2455 37.1206 69.688 37.0272 69.2234 36.8402L68.3872 37.588C66.9005 38.9899 64.6705 38.9898 63.1839 37.6814L60.5822 35.4383C59.0955 34.1299 58.7239 31.8868 59.8389 30.2045L60.4893 29.2699C60.2105 28.8026 60.0247 28.4288 59.8389 27.9615H58.7239C56.7726 27.868 55.1001 26.3726 54.9143 24.3165L54.6355 20.8584C54.4497 18.8958 55.8434 17.0266 57.7947 16.6527L58.7239 16.4658C58.9097 15.905 59.0026 15.3443 59.1884 14.7835L58.538 14.0358C57.1443 12.5405 57.1443 10.2974 58.4451 8.80201L60.6751 6.18512C61.9759 4.68975 64.2059 4.31589 65.8784 5.43742L66.5288 5.90473C67.0863 5.53088 67.7368 5.2505 68.3872 4.97012V4.12898C68.4801 2.1663 69.9668 0.484001 72.0109 0.29708L75.4488 0.0167086C77.4001 -0.170213 79.2584 1.23169 79.6301 3.19437L79.8159 4.03551C80.4663 4.22243 81.1167 4.40936 81.6742 4.59628L82.2318 4.03551C83.7184 2.6336 85.9484 2.63362 87.4351 3.94207L90.0367 6.18512C91.6163 7.49358 91.8951 9.73664 90.7801 11.4189L90.3155 12.0731C90.5942 12.5404 90.873 13.1012 91.0588 13.662H91.8951C93.8463 13.7554 95.5188 15.2508 95.7047 17.3069L95.9834 20.765C96.1692 22.7277 94.7755 24.5969 92.8242 24.9707L91.988 25.1576C91.8022 25.7184 91.6163 26.2792 91.4305 26.84L92.0809 27.5876C93.4746 29.083 93.4746 31.3261 92.2667 32.8214L90.0367 35.4383C88.7359 36.9337 86.5059 37.3076 84.8334 36.186L83.9972 35.6253C83.4397 35.9057 82.8821 36.186 82.3247 36.4664V37.4945C82.2317 39.4572 80.7451 41.1395 78.7009 41.3264L75.263 41.6068C75.0772 41.6068 74.9842 41.6068 74.8913 41.6068ZM68.4801 32.3541L69.5951 32.9149C70.6172 33.3822 71.6393 33.756 72.6613 33.943L73.8693 34.2234L74.6126 37.7749C74.6126 37.8683 74.7055 37.9618 74.7984 37.9618L78.1434 37.6814C78.2363 37.6814 78.3292 37.5879 78.3292 37.4945L78.4222 33.943L79.6301 33.4757C80.7451 33.1018 81.7672 32.5411 82.6963 31.8868L83.7184 31.1391L86.5988 33.1018C86.6917 33.1953 86.7847 33.1018 86.8776 33.1018L89.1076 30.4849C89.2005 30.3915 89.2005 30.298 89.1076 30.2045L86.6917 27.6811L87.2493 26.5596C87.7138 25.5315 88.0855 24.41 88.2713 23.2884L88.4572 22.0735L91.7092 21.4192C91.8021 21.4192 91.8951 21.3258 91.8951 21.2323L91.6163 17.8677C91.6163 17.7743 91.5234 17.6808 91.4305 17.6808L88.0855 17.5873L87.6209 16.3723C87.2492 15.3443 86.6917 14.3162 86.1342 13.3816L85.3909 12.3535L87.2493 9.54972C87.3422 9.45626 87.3422 9.36278 87.2493 9.26932L84.6476 7.02627C84.5546 6.93281 84.4618 6.93281 84.3688 7.02627L81.953 9.26932L80.838 8.70855C79.8159 8.24124 78.7009 7.86742 77.493 7.58704L76.2851 7.4001L75.6347 4.12898C75.6347 4.03552 75.5417 3.94207 75.4488 3.94207L72.1038 4.22244C72.0109 4.22244 71.918 4.31592 71.918 4.40938L71.8251 7.6805L70.6172 8.14781C69.5022 8.52165 68.3872 9.17586 67.458 9.83009L66.4359 10.5778L63.6484 8.70855C63.5555 8.61509 63.4626 8.70855 63.3697 8.70855L61.1397 11.3255C61.0468 11.4189 61.0468 11.5124 61.1397 11.6058L63.4626 14.1293L62.998 15.2508C62.5334 16.2789 62.2547 17.4004 62.0688 18.5219L61.883 19.8304L58.4451 20.4846C58.3522 20.4846 58.2593 20.5781 58.2593 20.6715L58.538 24.0361C58.538 24.1296 58.6309 24.223 58.7239 24.223L62.2547 24.3165L62.7193 25.438C63.091 26.3727 63.5555 27.3073 64.2059 28.2419L64.9493 29.2699L62.998 32.2607C62.9051 32.3541 62.998 32.4476 62.998 32.541L65.5997 34.7841C65.6926 34.8776 65.7855 34.8776 65.8784 34.7841L68.4801 32.3541ZM75.263 29.2699C73.2188 29.2699 71.3605 28.5222 69.7809 27.2138C68.0155 25.7184 66.9934 23.6623 66.8076 21.4192C66.6218 19.1762 67.2722 16.9331 68.7589 15.1574C70.2455 13.3816 72.2897 12.3535 74.5197 12.1666C76.7497 11.9797 78.9797 12.6339 80.7451 14.1293C82.5105 15.6247 83.5326 17.6808 83.7184 19.9238C83.9042 22.1669 83.2538 24.41 81.7672 26.1857C80.2805 27.9615 78.2363 28.9896 76.0063 29.1765C75.8205 29.2699 75.5418 29.2699 75.263 29.2699ZM75.3559 15.905C75.263 15.905 75.0772 15.905 74.9842 15.905C73.6834 15.9985 72.5684 16.6527 71.7322 17.5873C70.8959 18.6154 70.5243 19.8304 70.6172 21.1388C70.7101 22.4473 71.3605 23.5688 72.2897 24.41C73.3118 25.2511 74.5197 25.6249 75.8205 25.5315C77.1213 25.438 78.2363 24.7838 79.0726 23.8492C79.9088 22.8211 80.2805 21.6062 80.1876 20.2977C80.0947 18.9893 79.4443 17.8677 78.5151 17.0266C77.493 16.2789 76.4709 15.905 75.3559 15.905Z" fill="white"/>
<path d="M70.0597 76H63.091C60.3964 76 58.2593 73.8504 58.2593 71.1401V69.9251H23.044V71.1401C23.044 73.8504 20.9069 76 18.2123 76H11.2436C8.54902 76 6.41196 73.8504 6.41196 71.1401V66.1867C3.90321 63.2894 3.99613 58.6164 3.99613 54.7845C3.99613 54.3172 3.99613 53.9433 3.99613 53.5695C3.99613 51.0461 4.36779 48.803 4.73946 46.6534C2.97405 46.56 1.5803 45.2515 1.20863 43.5692L0.0936387 38.1485C-0.185111 37.027 0.186558 35.812 0.836973 34.8774C1.5803 33.9428 2.6953 33.4755 3.8103 33.4755H10.0357C12.3586 27.5875 14.7744 23.8491 17.2832 22.1668C24.2519 17.5872 37.4461 16.4657 47.3881 17.4938C48.4102 17.5872 49.1535 18.5218 49.0606 19.5499C48.9677 20.578 48.0385 21.3257 47.0164 21.2322C35.9594 20.1107 24.5307 21.793 19.3273 25.3444C17.9336 26.2791 15.7036 28.896 13.009 36.0924L12.5444 37.3074H3.62447V37.4008L4.73946 42.8215C4.73946 42.915 4.83237 42.915 4.83237 42.915H6.59779C7.2482 42.915 7.8057 43.1954 8.17737 43.6627C8.45611 44.0365 8.73487 44.5973 8.64195 45.5319C8.54903 46.0927 8.45611 46.56 8.3632 47.1207C7.99153 49.3638 7.61986 51.4199 7.61986 53.663C7.61986 54.0368 7.61986 54.5041 7.61986 54.9714C7.61986 58.2425 7.52695 62.3548 9.29236 64.0371C9.38528 64.0371 9.38528 64.1305 9.38528 64.1305L9.94277 64.6913V71.2336C9.94277 71.8878 10.4074 72.355 11.0578 72.355H18.0265C18.6769 72.355 19.1415 71.8878 19.1415 71.2336V66.2801H61.7902V71.2336C61.7902 71.8878 62.2547 72.355 62.9051 72.355H69.8739C70.5243 72.355 70.9889 71.7943 70.9889 71.2336V64.7847L71.5464 64.224C73.4047 62.4483 73.4047 55.8125 73.3118 52.6349C73.3118 52.0741 73.3118 51.5134 73.3118 51.0461C73.3118 50.018 74.148 49.1769 75.1701 49.1769C76.1922 49.1769 77.0285 50.018 77.0285 51.0461C77.0285 51.5134 77.0285 51.9807 77.0285 52.5415C77.1214 57.9622 76.9355 63.3829 74.6126 66.2801V71.1401C74.8914 73.8504 72.7543 76 70.0597 76Z" fill="white"/>
<path d="M40.6051 43.7564C33.0788 43.7564 25.5526 43.2891 18.1193 42.3545C17.5618 42.261 16.8185 41.9806 16.1681 40.9526C15.4247 39.7376 14.9601 37.4011 15.5176 36.0926C18.398 28.6157 20.1635 27.4942 20.721 27.1203C26.3889 23.3819 38.7467 22.4473 47.9455 23.4754C48.9675 23.5688 49.7109 24.5034 49.618 25.5315C49.525 26.5596 48.5959 27.3073 47.5738 27.2138C37.8176 26.0923 27.1322 27.4942 22.858 30.298C22.3934 30.6719 20.9997 32.5411 19.1414 37.4011C19.1414 37.6814 19.2343 38.3357 19.3272 38.7095C31.4993 40.1114 43.8571 40.3918 56.0292 39.3637C57.0513 39.2703 57.9804 40.018 58.0734 41.046C58.1663 42.0741 57.4229 43.0087 56.4008 43.1022C51.0117 43.5695 45.8084 43.7564 40.6051 43.7564Z" fill="white"/>
<path d="M19.5132 63.8501C15.4248 63.8501 12.0799 60.4855 12.0799 56.3733C12.0799 52.2611 15.4248 48.8966 19.5132 48.8966C23.6015 48.8966 26.9465 52.2611 26.9465 56.3733C26.9465 60.4855 23.6015 63.8501 19.5132 63.8501ZM19.5132 52.6349C17.469 52.6349 15.7965 54.3172 15.7965 56.3733C15.7965 58.4294 17.469 60.1117 19.5132 60.1117C21.5573 60.1117 23.2298 58.4294 23.2298 56.3733C23.2298 54.3172 21.5573 52.6349 19.5132 52.6349Z" fill="white"/>
<path d="M62.2547 63.8501C58.1663 63.8501 54.8213 60.4855 54.8213 56.3733C54.8213 52.2611 58.1663 48.8966 62.2547 48.8966C66.343 48.8966 69.688 52.2611 69.688 56.3733C69.688 60.4855 66.343 63.8501 62.2547 63.8501ZM62.2547 52.6349C60.2105 52.6349 58.538 54.3172 58.538 56.3733C58.538 58.4294 60.2105 60.1117 62.2547 60.1117C64.2988 60.1117 65.9713 58.4294 65.9713 56.3733C65.9713 54.3172 64.2988 52.6349 62.2547 52.6349Z" fill="white"/>
</svg>
