<svg xmlns="http://www.w3.org/2000/svg" enable-background="new 0 0 650 650" viewBox="0 0 650 650" width="550" height="550"><path fill="#dee8ff" d="M321.4642029,142.5276947c-28.8785095,2.7416992-58.3789978,21.7506104-63.4623108,50.3101044      c-7.5535889,42.4384003,39.4320984,80.3319092,32.1614075,122.8197021      c-5.120697,29.9238892-35.5622101,48.8334045-64.9405975,56.4866028      c-29.3784027,7.6531067-60.8031006,8.2049866-88.4650116,20.7138977      c-14.0913925,6.3722839-27.9652939,17.6843872-29.322197,33.0899963      c-1.0239944,11.6253052,5.6138,22.8954163,14.6571045,30.2720947c9.0432968,7.376709,20.250206,11.5028992,31.332695,15.1600037      c65.6433105,21.661499,135.2272034,31.3183899,204.2885132,28.3513184      c33.4346008-1.4364014,67.2061768-5.9294128,98.0561829-18.8991089s58.7438049-35.1578064,73.5375061-65.1758118      c15.0565186-30.5512085,15.4492798-66.3368835,10.7332153-100.0686951      c-5.3693237-38.4039001-17.3544312-76.6779022-40.6960144-107.6432953      c-15.3337097-20.3420105-35.6372986-37.7624054-59.490509-46.9338074      C381.7696838,138.677597,338.7839966,140.8833008,321.4642029,142.5276947z" opacity=".8" class="colordee8ff svgShape"></path><path fill="#ffffff" d="M63.3833961 196.0959015l24.1607018 123.5691071c1.0087967 5.1593933 5.5298996 8.8820801 10.7870026 8.8820801h175.3827057c6.9165955 0 12.1141968-6.3121948 10.7868958-13.1002808l-24.1607056-123.5691071c-1.0087891-5.1595001-5.529892-8.8822021-10.7870026-8.8822021H74.1703949C67.2537003 182.9954987 62.0560951 189.3078003 63.3833961 196.0959015zM570.9898682 207.9644928l-22.2599487 113.8475189c-.9294434 4.753479-5.0948486 8.1832886-9.9382935 8.1832886H377.2067871c-6.3724976 0-11.1611023-5.8156128-9.9382935-12.0697021l22.2600098-113.8475037c.9293823-4.7534943 5.0947876-8.1833954 9.9382935-8.1833954h161.5847168C567.4240112 195.8946991 572.2127075 201.7104034 570.9898682 207.9644928z" class="colorfff svgShape"></path><path fill="#3d3936" d="M156.6942902,464.993988h-42.878891c-12.677803,0-22.9922028-10.3141785-22.9922028-22.9921875v-87.6304016      c0-0.2760925,0.2236023-0.5,0.5-0.5s0.5,0.2239075,0.5,0.5v87.6304016c0,12.1264038,9.8656998,21.9921875,21.9922028,21.9921875      h42.878891c0.276413,0,0.5,0.2238159,0.5,0.5C157.1942902,464.7701111,156.9707031,464.993988,156.6942902,464.993988z" class="color3d3936 svgShape"></path><path fill="#a3a3f5" d="M176.2139893,497.0372925h-9.1899872c-6.8899994,0-12.8400116-4.8099976-14.2801056-11.539978      l-26.0399017-121.3200073c-1.9499969-9.0899963,4.9799957-17.6700134,14.2801056-17.6700134h9.1998901      c-9.3100891,0-16.2399902,8.5800171-14.2899933,17.6700134l26.0399933,121.3200073      C163.3840027,492.2272949,169.3338928,497.0372925,176.2139893,497.0372925z" class="colora3a3f5 svgShape"></path><path fill="#8c8ced" d="M171.1038971,497.0372925h-4.079895c-6.8899994,0-12.8400116-4.8099976-14.2801056-11.539978      l-26.0399017-121.3200073c-1.9499969-9.0899963,4.9799957-17.6700134,14.2801056-17.6700134h4.0798035      c-9.2999115,0-16.230011,8.5800171-14.2799072,17.6700134l26.0399017,121.3200073      C158.2639923,492.2272949,164.2139893,497.0372925,171.1038971,497.0372925z" class="color8c8ced svgShape"></path><path fill="#3d3936" d="M176.2137909,497.5372009h-9.1898956c-7.0780945,0-13.289093-5.0195007-14.7686005-11.9353027      l-26.0400009-121.3196106c-2.0198975-9.4118958,5.1606979-18.2749023,14.7685013-18.2749023h9.2001953      c0.276413,0,0.5,0.2239075,0.5,0.5c0,0.276123-0.223587,0.5-0.5,0.5c-8.98909,0-15.6847992,8.2826233-13.8011932,17.0649109      l26.0399933,121.3200989c1.3911133,6.4575195,7.1909027,11.1448059,13.7910004,11.1448059c0.276413,0,0.5,0.2239075,0.5,0.5      S176.4902039,497.5372009,176.2137909,497.5372009z M140.9837952,347.0073853      c-8.9888,0-15.6728973,8.2932129-13.7910004,17.0649109l26.0401001,121.3200989      c1.3818054,6.4577942,7.1815948,11.1448059,13.7910004,11.1448059h3.8218079      c-4.6612091-1.7941895-8.3057098-5.8522949-9.4004059-10.9346008l-26.0401001-121.3203125      c-1.6009064-7.4624023,2.5948029-14.6839905,9.351593-17.2749023H140.9837952z" class="color3d3936 svgShape"></path><path fill="#ffa18a" d="M343.0256958,231.9909058l6.7749023,10.9543915l2.9013062,4.3144073l20.1856995-15.8932037      l-0.8963013-1.0444946l-1.454895-1.6835022l0.3658752-6.5558014c0.2637024-4.485199-3.6902771-8.049408-8.1319885-7.3258057      l-3.4977112,0.5135956l-9.2721863-15.3147888c-0.9208069-1.3585052-2.7081909-1.7104034-3.9631042-0.9764099      c-1.4943848,0.8114014-2.0223999,2.7084045-1.1359863,4.171402l7.6500854,12.6162109      c-0.7966919-1.2578125-2.512207-1.6993103-4.0224915-0.9074097c-1.4942932,0.8114014-2.0054016,2.7273102-1.1177063,4.1726074      l1.8840027,3.1701965c-0.9238892-1.3630066-2.5960083-1.6517029-3.9498901-0.9026031      c-1.4943237,0.8114014-2.0054016,2.7274017-1.1177063,4.1726074l1.1970825,1.9946899      C343.3400879,227.496994,341.8096008,229.9436951,343.0256958,231.9909058z" class="colorffa18a svgShape"></path><path fill="#a3a3f5" d="M413.5162964,138.449295L413.5162964,138.449295c0,12.6372986-10.2445068,22.8818054-22.8818054,22.8818054      H228.1459961V138.449295c0-12.6372986,10.2445068-22.8817978,22.8816986-22.8817978H390.634491      C403.2717896,115.5674973,413.5162964,125.8119965,413.5162964,138.449295z" class="colora3a3f5 svgShape"></path><path fill="#ffffff" d="M366.2772827,497.0386047H176.2176971c-6.8865051,0-12.8377075-4.8095093-14.2828979-11.5426941      l-26.0382996-121.3167114c-1.9521027-9.0950928,4.9806976-17.6737976,14.2828979-17.6737976h190.0597076      c6.8865051,0,12.8377991,4.8095093,14.2828979,11.5426941l26.038208,121.3167114      C382.5122986,488.4598999,375.5794983,497.0386047,366.2772827,497.0386047z" class="colorfff svgShape"></path><path fill="#3d3936" d="M366.2772827,497.5386047H176.2176971c-7.074707,0-13.2870941-5.0205078-14.7714996-11.9377136      l-26.0384979-121.3165894c-2.0212097-9.4157104,5.1607971-18.2789001,14.7714996-18.2789001h190.0599976      c7.074707,0,13.2871094,5.0205994,14.7715149,11.9378052l26.0380859,121.3165894      C383.0700073,488.6759949,375.8879089,497.5386047,366.2772827,497.5386047z M150.1791992,347.0054016      c-8.9934082,0-15.677002,8.2945862-13.7940063,17.0689087l26.0386047,121.3165894      c1.3862,6.4595032,7.1875,11.1477051,13.7938995,11.1477051h190.0595856      c8.9933167,0,15.6769104-8.2944946,13.7939148-17.0688171l-26.0379944-121.3166809      c-1.3862915-6.4594116-7.1875-11.1477051-13.7940063-11.1477051H150.1791992z" class="color3d3936 svgShape"></path><path fill="#3d3936" d="M359.9017944,467.3673096H172.4671936c-3.9916992,0-7.496994-2.8328247-8.3348999-6.7359009      l-21.0336914-97.9980164c-0.9694061-4.5123901,2.4621887-8.7619934,7.0809937-8.7619934h190.0596008      c3.3911133,0,6.3692017,2.4064941,7.0805969,5.7221985l20.9169922,97.4597168      C369.3778076,462.3648071,365.3263855,467.3673096,359.9017944,467.3673096z M150.1795959,354.8713989      c-3.9785919,0-6.9394989,3.65979-6.1035004,7.552002l21.0337067,97.9981079      c0.7397919,3.445282,3.8339996,5.9458008,7.3573914,5.9458008h187.4346008c4.79599,0,8.3624878-4.4234009,7.3573914-9.1040039      l-20.9169922-97.4598083c-0.6137085-2.8579102-3.1800842-4.9320984-6.1029968-4.9320984H150.1795959z" class="color3d3936 svgShape"></path><path fill="#dee8ff" d="M339.6235046,370.0906067l7.8389893,34.077301       c0.5310974,2.3092041-1.2229004,4.5126038-3.5924072,4.5126038h-40.9949036       c-1.7174988,0-3.2072754-1.1861267-3.5923767-2.8598022l-7.8388977-34.077301       c-0.5312195-2.3092041,1.2227783-4.5126038,3.5922852-4.5126038h40.9949036       C337.7485962,367.2308044,339.2384949,368.4169006,339.6235046,370.0906067z" opacity=".8" class="colordee8ff svgShape"></path><rect width="34.207" height="1" x="299.531" y="376.057" fill="#ffffff" class="colorfff svgShape"></rect><rect width="34.207" height="1" x="300.79" y="382.346" fill="#ffffff" class="colorfff svgShape"></rect><rect width="21.611" height="1" x="302.05" y="388.635" fill="#ffffff" class="colorfff svgShape"></rect><path fill="#3d3936" d="M314.8095093,517.8394165h-68.8271179c-0.2182922,0-0.4111938-0.1412964-0.476593-0.3493042      l-6.4100952-20.3008118c-0.1024017-0.3222046,0.1390991-0.6506958,0.4764862-0.6506958h68.8271942      c0.2182007,0,0.4111023,0.1413879,0.4765015,0.3493958l6.4102173,20.3007813      C315.3884888,517.5109863,315.1469116,517.8394165,314.8095093,517.8394165z M246.3490906,516.8394165h67.7783203      l-6.0947266-19.3008118H240.254303L246.3490906,516.8394165z" class="color3d3936 svgShape"></path><polygon fill="#a3a3f5" points="251.924 517.337 245.984 517.337 239.574 497.037 245.514 497.037" class="colora3a3f5 svgShape"></polygon><polygon fill="#8c8ced" points="248.604 517.337 245.984 517.337 239.574 497.037 242.194 497.037" class="color8c8ced svgShape"></polygon><path fill="#3d3936" d="M251.9237976,517.8372192h-5.9400024c-0.2182007,0-0.4111023-0.1412964-0.4765015-0.3493042      l-6.410202-20.3001099c-0.1024017-0.322113,0.1392059-0.6506042,0.4766083-0.6506042h5.9403992      c0.2182922,0,0.4111023,0.1412964,0.476593,0.3493042l6.4096069,20.3000793      C252.5027008,517.5087891,252.2612,517.8372192,251.9237976,517.8372192z M246.3504944,516.8372192h4.8912048      l-6.0937958-19.3000183h-4.8921051L246.3504944,516.8372192z" class="color3d3936 svgShape"></path><path fill="#3d3936" d="M364.9198914,526.4674072H194.5800018c-2.6543121,0-4.8134003-2.1594849-4.8134003-4.8135376      s2.1590881-4.8132935,4.8134003-4.8132935h170.3398895c2.6542969,0,4.8135071,2.1592407,4.8135071,4.8132935      S367.5741882,526.4674072,364.9198914,526.4674072z M194.5800018,517.8405762      c-2.1025085,0-3.8134003,1.7106934-3.8134003,3.8132935c0,2.1028442,1.7108917,3.8135376,3.8134003,3.8135376h170.3398895      c2.1025085,0,3.8135071-1.7106934,3.8135071-3.8135376c0-2.1026001-1.7109985-3.8132935-3.8135071-3.8132935H194.5800018z" class="color3d3936 svgShape"></path><path fill="#a3a3f5" d="M236.1728973,517.3405151h-41.4073944c-2.2528076,0-4.2646027,1.6470947-4.4785004,3.8897095      c-0.2453003,2.5725708,1.7711945,4.7370605,4.2929993,4.7370605h41.5928955      c2.3822021,0,4.3134003-1.9312134,4.3134003-4.3134155l0,0      C240.4862976,519.2717285,238.5550995,517.3405151,236.1728973,517.3405151z" class="colora3a3f5 svgShape"></path><path fill="#8c8ced" d="M208.5438995,525.9672852h-13.9600067c-2.5299988,0-4.5399933-2.1599731-4.2997894-4.7399902      c0.219696-2.2399902,2.2299957-3.8900146,4.4799957-3.8900146h13.9598999c-2.25,0-4.2600098,1.6500244-4.4701996,3.8900146      C204.0037994,523.807312,206.0238953,525.9672852,208.5438995,525.9672852z" class="color8c8ced svgShape"></path><path fill="#3d3936" d="M236.1727905,526.4674072h-41.5927887c-2.7584991,0-5.0697021-2.3605347-4.7905121-5.284729      c0.2319031-2.4347534,2.4180145-4.3421021,4.9761047-4.3421021h41.407196c2.6543121,0,4.8135071,2.1592407,4.8135071,4.8132935      S238.8271027,526.4674072,236.1727905,526.4674072z M194.7655945,517.8405762      c-2.0484009,0-3.7968903,1.5098267-3.9810028,3.4371338c-0.2206879,2.3167725,1.6054077,4.1896973,3.7954102,4.1896973      h41.5927887c2.1025085,0,3.8135071-1.7106934,3.8135071-3.8135376c0-2.1026001-1.7109985-3.8132935-3.8135071-3.8132935      H194.7655945z" class="color3d3936 svgShape"></path><path fill="#3d3936" d="M218.7236023 517.8405762h-6.6045074c-.3598022 0-.6038055-.3706055-.4575043-.7019043l8.9565125-20.3019714c.0800934-.1810913.2592926-.2980957.457489-.2980957h6.605011c.359787 0 .6037903.370697.457489.7019958l-8.9570007 20.302002C219.1009979 517.7236938 218.9217987 517.8405762 218.7236023 517.8405762zM212.8862 516.8405762h5.5117035l8.5155945-19.3019714h-5.512207L212.8862 516.8405762zM538.7915039 330.4952087H377.2070007c-6.694397 0-11.7105103-6.1090088-10.4291992-12.6654968l22.2597046-113.8474121c.9732056-4.9759064 5.3594055-8.5874939 10.4291992-8.5874939h161.5849915c6.6940918 0 11.7111206 6.1092987 10.4287109 12.6655884l-22.2597046 113.8475952C548.2474976 326.8839111 543.8612671 330.4952087 538.7915039 330.4952087zM399.4667053 196.3948059c-4.5927124 0-8.5664063 3.2717896-9.4477234 7.7792969l-22.2597961 113.8475037c-1.1638794 5.9513855 3.3962097 11.4736023 9.4478149 11.4736023h161.5845032c4.5927124 0 8.5664063-3.2715149 9.4476929-7.7791138l22.2598267-113.8475952 0 0c1.1634521-5.9494019-3.3930054-11.4736938-9.4473267-11.4736938H399.4667053zM273.7138062 329.0472107H98.3309937c-5.4828949 0-10.2255936-3.905304-11.2777939-9.2861023L62.892498 196.1920013c-1.3885994-7.1051025 4.0538979-13.6965942 11.2778969-13.6965942h175.3827972c5.4824066 0 10.2250977 3.9055939 11.2773132 9.2863922l24.1611938 123.5690918C286.3800964 322.454895 280.9387817 329.0472107 273.7138062 329.0472107zM63.8739967 196.0001068l24.1606026 123.5691071c.960495 4.9125977 5.2904968 8.4779968 10.2963943 8.4779968h175.3828125c6.6085815 0 11.5622864-6.0321045 10.2963867-12.504425l-24.1611023-123.5690918c-.9604797-4.9125977-5.2905884-8.4782867-10.2958984-8.4782867H74.1703949C67.5626984 183.4954071 62.6078987 189.5263062 63.8739967 196.0001068z" class="color3d3936 svgShape"></path><path fill="#ffa18a" d="M304.0861816,204.0245056l-51.637085,38.7625885l-44.9786987-21.1266937v45.0404968l28.221405,11.774292        c10.0342865,4.186615,21.5773926,2.2837219,29.736908-4.9019775l55.7805786-51.9610138L304.0861816,204.0245056z" class="colorffa18a svgShape"></path><path fill="#ffa18a" d="M304.0861816,204.0245056l-7.0761719,8.0943909l24.1992798,9.4933014         c7.0057983-6.3159943,20.7010193-18.940094,20.7010193-18.940094         c1.3244934-1.1643982,1.4317017-3.2362976,0.1578979-4.5314026         c-1.1179199-1.1313019-2.9099121-1.2416077-4.1578979-0.2527008l-0.8925171,0.7167053l3.906311-3.4350128         c1.3631897-1.1976929,1.4244995-3.2558899,0.1698914-4.5313873         c-1.1300049-1.1313019-2.9219055-1.2416077-4.1581116-0.2519989l-0.5227966,0.4217987l1.9920044-1.7554016         c1.352417-1.2123108,1.4069214-3.2610016,0.1581116-4.5321045c-1.1169128-1.1423035-2.9100952-1.2409973-4.15802-0.2519989         l-2.9423828,2.3370056c1.3522034-1.1652069,1.4169922-3.2006073,0.1959839-4.4347076         c-1.1296997-1.1320038-2.9375-1.1968994-4.1445007-0.1448975l-12.7391968,11.3722992l1.8419189-6.2082977         c0.1513062-0.4797058,0.2572021-0.9765015,0.3036804-1.4669952c0.2120972-2.2413025-0.6596985-4.4796143-2.4120789-6.0005035         c-1.0986023-0.9638977-2.8283997-0.6094055-3.4714966,0.7080994l-4.9958191,9.5374908         c-0.5093079,1.0239105-0.8267822,2.1366119-0.9349976,3.2810059L304.0861816,204.0245056z" class="colorffa18a svgShape"></path><path fill="#3d3936" d="M327.2998047 190.6956024c-.1939087-.1970062-.1910095-.5133972.0057983-.7070007l3.8067017-3.7397003c.1972046-.1939087.5135803-.1909943.7070007.0063019.1937866.196991.1908875.5133972-.0059204.7070007l-3.8065796 3.7397919C327.8092957 190.8955994 327.4928894 190.8925934 327.2998047 190.6956024zM333.7495117 193.6351013c-.1939087-.1970062-.1910095-.5133972.0057983-.7070007l2.8862915-2.8356934c.1966858-.1939087.513092-.1907043.7070007.0062866.1937866.1970062.1908875.5134125-.0059204.7070007l-2.8862 2.8357086C334.2590027 193.8350067 333.9425964 193.8321075 333.7495117 193.6351013zM334.2636108 201.3717041c-.1958008-.1949005-.1968079-.5113068-.0019226-.7071075l2.4017944-2.4125977c.1949158-.1952972.512207-.1963043.7071228-.0014038.1958008.194809.1966858.5112.0018921.7070007l-2.4017944 2.4125977C334.774292 201.5675049 334.4570007 201.5650024 334.2636108 201.3717041zM313.1469116 203.9817963c-.2129211-.175293-.2436218-.4904938-.0683289-.7036896 3.9023132-4.7414093 1.2866211-9.5888062 1.2597046-9.637207-.1341858-.241394-.0473022-.5455933.194397-.6799011.2412109-.1333008.5454102-.0466003.679718.1945953.0301819.0544128 2.9682007 5.4968109-1.3614197 10.7578125C313.6766052 204.1246948 313.3623962 204.158905 313.1469116 203.9817963z" class="color3d3936 svgShape"></path><polygon fill="#3d3936" points="234.777 234.486 207.47 221.661 207.47 266.701 220.193 272.009" class="color3d3936 svgShape"></polygon><path fill="#a473e5" d="M238.6401978,231.7279053l-22.8977051,28.7591858l-8.2230988,10.3226013l-4.8551025,6.1018066       c-12.4221954-18.600708-23.6850891-36.5995941-29.5681-51.7552948l9.6664124-21.7167053L238.6401978,231.7279053z" class="colora473e5 svgShape"></path><polygon fill="#8152cc" points="215.742 260.487 207.519 270.81 195.382 228.633" class="color8152cc svgShape"></polygon><path fill="#a473e5" d="M223.6268005,328.5470886h-93.0346985l-25.5223083-59.1918945       c-0.9295959-1.9028931-1.7058945-3.8378906-2.3401947-5.7846069       c-7.2826004-22.3947906,4.2099991-46.8782806,26.2001953-55.5055847       c1.7057953-0.6781006,3.4774017-1.2579956,5.3034973-1.7277985c23.1511993-5.941803,22.4542084-5.832901,24.2319031-6.167511       c10.8036957-2.0993958,22.0449066,0.5249023,30.8256989,7.2717133L223.6268005,328.5470886z" class="colora473e5 svgShape"></path><polygon fill="#8152cc" points="140.116 269.647 127.981 303.655 127.169 270.131" class="color8152cc svgShape"></polygon><path fill="#3d3936" d="M206.9897003 270.776886l-13.4380035-46.7150879c-.0762024-.2653046.0767059-.5421906.3423004-.6185913.266098-.0779114.5424957.0770874.6186066.3423004l13.4379883 46.7151031c.0762024.2652893-.0765991.5423889-.3421936.6185913C207.3475037 271.1954956 207.066803 271.0454102 206.9897003 270.776886zM179.0395966 161.4089966c-2.9983063 5.014801-9.5063934 6.6524048-14.5211945 3.6540985-5.0145111-2.9980927-6.6417084-9.499588-3.6434021-14.514389 2.9981995-5.0149078 9.48909-6.6482086 14.5036926-3.6501007C180.3934937 149.8968964 182.0379028 156.3941956 179.0395966 161.4089966z" class="color3d3936 svgShape"></path><path fill="#f4af9a" d="M153.5146027,193.3547058c-10.0509033-1.8917999-16.4398041-13.7899017-16.5471039-19.8977051       c-0.2288971-14.0214081,2.9613953-29.1537933,15.998703-27.9638062       c7.261795,0.6628113,13.8170013,4.7849121,18.2325897,10.7377014c3.514801,4.7203064,5.6778107,10.6150055,5.786911,16.8182068       C177.2249908,187.0715027,169.5851898,196.3795929,153.5146027,193.3547058z" class="colorf4af9a svgShape"></path><path fill="#ffa18a" d="M153.5146027,193.3547058c-10.0509033-1.8917999-16.4398041-13.7899017-16.5471039-19.8977051       c-0.2288971-14.0214081,2.9613953-29.1537933,15.998703-27.9638062       c7.261795,0.6628113,13.8170013,4.7849121,18.2325897,10.7377014c3.514801,4.7203064,5.6778107,10.6150055,5.786911,16.8182068       C177.2249908,187.0715027,169.5851898,196.3795929,153.5146027,193.3547058z" class="colorffa18a svgShape"></path><path fill="#ffa18a" d="M153.3621979,193.3179016l-1.9136047,8.3544922l-20.1858978,6.0799103l5.4564972-31.5037079       l0.6562042,0.0543976C138.9171906,182.6455994,144.7893982,191.6119995,153.3621979,193.3179016z" class="colorffa18a svgShape"></path><path fill="#3d3936" d="M147.2801971,165.8686981c-0.2776031,1.098999-0.7180023,2.1764984-1.3294983,3.1994019       c-3.3829956,5.6582031-10.7261047,7.5059052-16.3843079,4.1228943       c-5.6578979-3.3827972-7.4937973-10.718399-4.1108932-16.3765869       c3.3830032-5.6582031,10.7065964-7.5012054,16.3644943-4.1184082       C146.4553986,155.4674072,148.5384979,160.8883972,147.2801971,165.8686981" class="color3d3936 svgShape"></path><path fill="#3d3936" d="M143.4557953 176.8430023c-.1858978.7359924-.4808044 1.4575958-.8903961 2.1427002-2.2657013 3.789505-7.183609 5.0269012-10.9730988 2.7612-3.7893066-2.2655029-5.0189056-7.1784973-2.7532043-10.9680023 2.2655945-3.789505 7.1705933-5.0236969 10.9598999-2.758194C142.9033966 169.8768005 144.2985992 173.5075073 143.4557953 176.8430023M162.2890015 185.0970001c-.2445984-.1273956-.3393097-.4286957-.2124023-.6735992.1264954-.2444.4286957-.3408051.6734009-.2138977.1307983.0671997 3.2127991 1.6226044 5.2010956-.4147034.1934052-.1976013.5097961-.201004.7071075-.0083923.1976929.1928864.2015991.5095978.0086975.7070923C166.9586029 186.2424011 164.2713928 186.1242981 162.2890015 185.0970001zM176.5912933 154.357193c-6.4734039 7.9377136-20.5249939 10.5248108-31.3613892 5.7831116-10.8255005-4.7420044-14.335907-15.0263062-7.8622131-22.9557037 6.4734039-7.9295044 20.4921112-10.5166016 31.3176117-5.7749939C179.5110931 136.1513062 183.0650024 146.4277039 176.5912933 154.357193z" class="color3d3936 svgShape"></path><path fill="#ffa18a" d="M148.9030914,171.9503937c-0.3166962,3.4690094-3.384491,6.0291138-6.8593903,5.7118988       c-3.4689026-0.3165894-6.0284119-3.3903961-5.7118073-6.8593903c0.3171997-3.4748077,3.3903961-6.0283051,6.8592072-5.7116089       C146.6660004,165.4084015,149.2201996,168.4756012,148.9030914,171.9503937z" class="colorffa18a svgShape"></path><path fill="#3d3936" d="M142.0444031,178.1622009c-0.015213,0-0.030304-0.0007935-0.0459137-0.0019989       c-0.7475891-0.0681-1.4716949-0.2563019-2.151886-0.5592957c-0.2519073-0.1125031-0.3657074-0.4082031-0.2528992-0.6604004       c0.112793-0.2519989,0.4057922-0.3650055,0.6601868-0.2532043c0.5794983,0.2583008,1.1972046,0.4187012,1.8354034,0.4767914       c0.2749023,0.0252075,0.4775085,0.2683105,0.4526062,0.5435028       C142.5179901,177.9671021,142.3002014,178.1622009,142.0444031,178.1622009z" class="color3d3936 svgShape"></path><path fill="#3d3936" d="M139.8466034,177.6009064c-2.6650085-1.1877136-4.2778015-3.9377136-4.0127106-6.8435059       c0.3420105-3.745697,3.6507111-6.5075989,7.4024048-6.164093c2.2592926,0.2062988,4.2606964,1.515686,5.3529968,3.5024872       c0.1333008,0.2419128,0.0449066,0.5458984-0.1972961,0.6791992c-0.2402039,0.1325073-0.5458984,0.0447083-0.6786957-0.1972961       c-0.9326019-1.6952972-2.6401062-2.8125-4.5678101-2.9882965c-3.1904907-0.2920074-6.0228882,2.0518951-6.3154907,5.2588043       c-0.2265015,2.4792938,1.1493988,4.8258972,3.4238892,5.8390961c0.2519073,0.1125946,0.3657074,0.4080048,0.2528992,0.6604004       C140.3965912,177.5962067,140.103302,177.7140961,139.8466034,177.6009064z" class="color3d3936 svgShape"></path><path fill="#ffa18a" d="M158.4651947,200.169693c-0.5903931,8.3983002-7.5780029,15.0249023-16.1291046,15.0249023       c-5.5767975,0-10.4974976-2.832489-13.4062958-7.1295929c1.7057953-0.6781006,3.4774017-1.2579956,5.3034973-1.7277985       C157.384491,200.395401,156.6875,200.504303,158.4651947,200.169693z" class="colorffa18a svgShape"></path><path fill="#3d3936" d="M153.3621979 193.0594025c0 0-6.2566071-.5886078-12.1286011-5.6304016 1.5933075 5.3092957 5.5682068 9.4761963 10.8553009 11.4479065L153.3621979 193.0594025zM142.3358917 215.6947021c-5.539093 0-10.7050934-2.747406-13.8202972-7.3493958-.1548004-.2288055-.094696-.5396118.1338043-.6943054.2294922-.1551056.539505-.0944977.6943054.1336975 2.9286957 4.3267059 7.7855988 6.9100037 12.9921875 6.9100037 7.3511047 0 13.796402-5.2111969 15.3252106-12.3914032.0576019-.2702942.3246918-.4429016.5932007-.3847961.2700958.0574036.4423981.322998.3852997.5932922C157.0126038 210.1504974 150.1562042 215.6947021 142.3358917 215.6947021zM144.2621918 173.5738068c-.2631989-.0832062-.4091949-.3643036-.3256989-.6274109.634201-2.0092926-.5890961-3.3483887-2.6718903-3.6579895-.2729034-.0400085-.4618988-.2938995-.4219055-.5671082.0401001-.2731934.289093-.4640961.5673981-.4221954 2.572998.3784027 4.3321991 2.2507935 3.4795074 4.9485016C144.8067932 173.5095062 144.5274963 173.6575012 144.2621918 173.5738068z" class="color3d3936 svgShape"></path><path fill="#3d3936" d="M144.0487976,172.2843018c-0.4685974-0.7897949-1.6403961-1.0140076-2.0923004-0.6490021       c-0.214798,0.1735992-0.5292969,0.1401978-0.7030945-0.074707c-0.1734009-0.214798-0.1397095-0.5297852,0.0751953-0.7030945       c0.9499054-0.7684021,2.8153992-0.3739929,3.5805054,0.9170074c0.140686,0.2374878,0.0625,0.5441895-0.1753082,0.6849976       C144.4976959,172.5991974,144.190094,172.5233002,144.0487976,172.2843018z" class="color3d3936 svgShape"></path><line x1="252.449" x2="251.013" y1="242.787" y2="250.057" fill="#bde3ff"></line><path fill="#3d3936" d="M250.9165039,250.5471954c-0.2710114-0.0534973-0.4473114-0.316391-0.394104-0.5874023        l1.4359894-7.2694855c0.0542145-0.270813,0.3179016-0.4480133,0.5875092-0.3936005        c0.2709045,0.0534973,0.4472046,0.316391,0.3939972,0.5873871l-1.4360046,7.2695007        C251.4494934,250.4268036,251.1833038,250.6009979,250.9165039,250.5471954z" class="color3d3936 svgShape"></path><line x1="255.003" x2="255.502" y1="245.996" y2="250.057" fill="#bde3ff"></line><path fill="#3d3936" d="M255.5014038 250.5567017c-.2490082 0-.4648132-.1855011-.4956055-.4389954l-.4985046-4.0610046c-.0336914-.2742004.1611023-.5236969.4349976-.5574036.2793121-.0345917.5240021.1614075.5572052.4353027l.4985046 4.0610962C256.0344849 250.2924957 255.8038025 250.5567017 255.5014038 250.5567017zM217.5482941 306.1722107h-77.7182922c-.2763062 0-.5-.2239075-.5-.5 0-.276123.2236938-.5.5-.5h77.7182922c.2763977 0 .5.223877.5.5C218.0482941 305.9483032 217.8246918 306.1722107 217.5482941 306.1722107zM155.0731964 167.2998962c-.2285004-.1552887-.2875977-.4662933-.1322937-.6945953 2.3968964-3.5214996 5.6703949-1.8417969 5.7020874-1.8249969.2442017.1293945.3374023.4319.2080078.6761017-.1289063.2435913-.4311066.3363953-.6748047.2081909-.1156921-.059494-2.530304-1.2565918-4.4082031 1.5032043C155.6109009 167.3979034 155.2993927 167.4541016 155.0731964 167.2998962zM168.4198914 165.2810974c-.2128906-.1759949-.2431946-.4911957-.0668945-.7041016 2.7138062-3.2825012 5.8168945-1.3073883 5.8466949-1.2873993.2309113.1513977.2954102.4614105.1440125.6923981-.1504059.230011-.4600067.2954102-.6904144.1450043-.1010895-.0646973-2.397995-1.4918976-4.5298004 1.087204C168.9480896 165.4268951 168.6331024 165.4568939 168.4198914 165.2810974zM164.9188995 175.7843018c-.0361023-.2736969.1562042-.5250092.4297028-.5612946l2.5453949-.3377075-2.2787933-6.5643921c-.0908051-.2610016.047287-.5459137.3080902-.6365051.2612-.091095.5458984.0475922.6362.3083038l2.4799957 7.1436005c.1042023.3000946-.093689.6181946-.406189.6596985l-3.1529083.4181976C165.2034912 176.2503052 164.9548035 176.0558014 164.9188995 175.7843018z" class="color3d3936 svgShape"></path><path fill="#ffffff" d="M163.3519897,169.6016998c0,0-1.2427979,2.9577942-3.5543976,3.5422058       c-0.0869904,0.0248871-0.1864929,0.0369873-0.2734985,0.0497894c-2.2370911,0.3852997-4.5486908-1.4667969-4.5486908-1.4667969       s1.2552948-2.9456024,3.5668945-3.5294037C160.8811951,167.6074066,163.2516937,169.570694,163.3519897,169.6016998z" class="colorfff svgShape"></path><path fill="#3d3936" d="M163.3519897,169.6016998c0,0-1.2427979,2.9577942-3.5543976,3.5422058       c-0.0869904,0.0248871-0.1864929,0.0369873-0.2734985,0.0497894c-1.4860992-1.2982025-1.7088013-3.5146027-0.509491-5.0835876       C161.1770935,167.8618927,163.3519897,169.6016998,163.3519897,169.6016998z" class="color3d3936 svgShape"></path><path fill="#ffffff" d="M176.237793,168.6083069c0,0-1.4118958,2.4596863-3.5034943,2.7210999       c-0.0789948,0.0122986-0.1676025,0.0121918-0.2453003,0.0139008c-2.0045013,0.0947876-3.8311005-1.7814026-3.8311005-1.7814026       s1.4216003-2.4477997,3.5130005-2.7086029C174.2971954,166.5886993,176.1376038,168.5630951,176.237793,168.6083069z" class="colorfff svgShape"></path><path fill="#3d3936" d="M176.237793,168.6083069c0,0-1.4118958,2.4596863-3.5034943,2.7210999       c-0.0789948,0.0122986-0.1676025,0.0121918-0.2453003,0.0139008c-1.1625977-1.3005066-1.1170044-3.269104,0.1058044-4.5153046       C174.5188904,166.8453979,176.237793,168.6083069,176.237793,168.6083069z" class="color3d3936 svgShape"></path><path fill="#ffffff" d="M293.2117004,292.8836975v0.0101013c0,21.9219971-17.7832947,39.704895-39.7048035,39.704895        c-21.9246979,0-39.7156067-17.7720947-39.7156067-39.704895v-0.0101013        c0-21.9321899,17.7834015-39.7155914,39.7156067-39.7155914        C275.4692078,253.1681061,293.2117004,270.9946899,293.2117004,292.8836975z" class="colorfff svgShape"></path><path fill="#3d3936" d="M253.5067902,333.0986938c-22.1635895,0-40.2152863-17.9242859-40.2152863-40.2048035        c0-22.1853027,18.0404968-40.2258911,40.2152863-40.2258911c22.2368927,0,40.2050934,18.0245056,40.2050934,40.2156067        v0.0102844C293.7118835,315.0628052,275.6756897,333.0986938,253.5067902,333.0986938z M253.5067902,253.6679993        c-21.6234894,0-39.2152863,17.5921021-39.2152863,39.2156067c0,21.8480835,17.7238922,39.2150879,39.2152863,39.2150879        c21.6177216,0,39.2050934-17.5871887,39.2050934-39.2048035v-0.0102844        C292.7118835,271.2828064,275.23349,253.6679993,253.5067902,253.6679993z" class="color3d3936 svgShape"></path><path fill="#ffc67b" d="M285.0394897,292.883606v0.0080872c0,17.4104919-14.1235962,31.5337219-31.5336914,31.5337219        c-17.4127045,0-31.5422058-14.114624-31.5422058-31.5337219v-0.0080872        c0-17.4186096,14.1236115-31.5422058,31.5422058-31.5422058        C270.9483032,261.3414001,285.0394897,275.4992981,285.0394897,292.883606z" class="colorffc67b svgShape"></path><path fill="#3d3936" d="M253.5057983,324.925415c-17.6591949,0-32.0424957-14.2814026-32.0424957-32.0337219        c0-17.6763,14.3740997-32.050293,32.0424957-32.050293c17.718811,0,32.0336914,14.3620911,32.0336914,32.0422058v0.0080872        C285.5394897,310.5549927,271.1694031,324.925415,253.5057983,324.925415z M253.5057983,261.8414001        c-17.1166992,0-31.0424957,13.9255066-31.0424957,31.0422058c0,17.3291931,14.0673981,31.0418091,31.0424957,31.0418091        c17.1117859,0,31.0336914-13.9217224,31.0336914-31.0337219v-0.0080872        C284.5394897,275.7849121,270.7033081,261.8414001,253.5057983,261.8414001z" class="color3d3936 svgShape"></path><path fill="#ffa18a" d="M204.2229004,298.8716125l-76.2423019,8.0227966l-0.1050034-46.2795105h-33.425499l0.7912979,55.861908       c0.0251007,13.004303,11.4386063,23.0460815,24.3403015,21.4147949l89.0218964-13.8548889L204.2229004,298.8716125z" class="colorffa18a svgShape"></path><polygon fill="#3d3936" points="127.915 278.217 127.875 260.615 94.45 260.615 94.699 271.348" class="color3d3936 svgShape"></polygon><path fill="#a473e5" d="M127.6681976,208.7196045L127.6681976,208.7196045       c-15.5327988,4.6235962-27.9614029,16.3909912-33.2789001,31.7000885       c-3.3581009,9.6678009-4.3162003,20.273819-7.3859024,31.2117157l55.5282059-2.0740967L127.6681976,208.7196045z" class="colora473e5 svgShape"></path><path fill="#3d3936" d="M87.0028992,272.1314087c-0.267601,0-0.4893036-0.2116089-0.4990005-0.4814148       c-0.0102997-0.2758789,0.2050018-0.507782,0.480896-0.51828l54.9155045-2.0513l-10.4725952-42.8645172       c-0.0654144-0.2682953,0.0990906-0.5388031,0.3671875-0.6042938c0.2680054-0.0653992,0.5384979,0.0981903,0.6045074,0.3670044       l10.618103,43.4598999c0.0753021,0.308197-0.1520081,0.6066895-0.4673004,0.6184998       C133.3899994,270.3991089,157.1465912,269.5119019,87.0028992,272.1314087z" class="color3d3936 svgShape"></path><path fill="#3d3936" d="M140.1161957,260.6495056H95.9272003c-0.2764053,0-0.5-0.2239075-0.5-0.5s0.2235947-0.5,0.5-0.5       h44.1889954c0.2763062,0,0.5,0.2239075,0.5,0.5S140.3925018,260.6495056,140.1161957,260.6495056z" class="color3d3936 svgShape"></path><path fill="#ffa18a" d="M208.6035919,324.0367126l22.4120026-2.40802        c1.9203949-0.4709778,3.0574951-2.4668884,2.4795074-4.3581848c-0.4111023-1.3869019-1.6733093-2.3929138-3.1505127-2.4439087        l1.8914032-0.4650879c1.9320984-0.489624,3.052002-2.4579163,2.4853058-4.3666992        c-0.4465942-1.4649048-1.7978973-2.4376221-3.2866974-2.4465027l1.4878998-0.3684082        c1.9113922-0.468811,3.053894-2.452301,2.4852905-4.3669128c-0.5195007-1.7142944-2.2686005-2.7501831-4.0269012-2.3726807        l-3.2348938,0.6907959c1.6589966-0.6444092,2.5789032-2.4832153,2.0529938-4.2267151        c-0.4953918-1.6714783-2.258194-2.7581787-4.0269928-2.3726807l-12.0375061,2.3697815l0.4988098-6.6911011        c0.0621948-0.9259033-0.2879028-1.836792-0.95961-2.4711914c-1.5291901-1.4428101-4.0273895-0.9534912-4.9001923,0.9667053        L204.1508026,298.8638L208.6035919,324.0367126z" class="colorffa18a svgShape"></path><path fill="#3d3936" d="M203.9438019 299.3189087c-.2515106-.1141968-.3623047-.4109192-.2480011-.6621094l4.6224976-10.1578979c1.0193939-2.2415161 3.9234009-2.7977905 5.6987-1.1235962.7817993.7392883 1.1884918 1.7846985 1.1152954 2.8688965l-.4989929 6.6943054c-.0205994.2749939-.2583008.4794922-.5357056.4614868-.2754059-.0205078-.4819031-.2602844-.4613953-.5357056l.4984894-6.6908875c.0528107-.7817078-.2401886-1.5378113-.8041992-2.0710144-1.2778931-1.2052917-3.3682861-.8027954-4.1019897.8105164l-4.6226044 10.1579895C204.4922943 299.3203125 204.196701 299.4342957 203.9438019 299.3189087zM221.5614929 302.3304138c-.0497894-.2717285.1303101-.5320129.402298-.5815125l6.092804-1.1097107c.2714996-.048584.5317078.1306152.5810089.4024048.0498962.271698-.1303101.5320129-.4023132.5815125l-6.0927887 1.1095886C221.8632965 302.7822876 221.6096954 302.5956116 221.5614929 302.3304138zM223.1351929 309.0462036c-.0497894-.271698.1304016-.5320129.402298-.5815125l6.7304993-1.2258911c.2714996-.0462952.5317993.1307068.5811005.4024048.0498047.271698-.1303864.5319824-.4023895.5814819l-6.7304077 1.2259216C223.4369965 309.4981079 223.1835022 309.3114014 223.1351929 309.0462036zM221.7274933 316.290802c-.0497894-.271698.1304016-.5318909.402298-.5815125l8.0577087-1.4674988c.2733917-.0478821.5316925.1306152.5809937.4023132.0498047.271698-.1304016.5319824-.402298.581604l-8.0576935 1.4674988C222.0292969 316.7427063 221.7758026 316.5560913 221.7274933 316.290802z" class="color3d3936 svgShape"></path><path fill="#ffffff" d="M250.4189911,278.3756104c1.9403076-0.5007019,3.3886108-0.6634216,4.3439026-0.4880981        c1.0173035,0.2122803,1.6398163,0.7572021,1.8663177,1.6351013l0.0095825,0.0369873        c0.1311035,0.9685974-0.452301,1.6202087-1.7501984,1.9551086c-1.1582947,0.0090942-2.335495,0.1477966-3.5325928,0.4171753        l2.0990906,7.8260193c4.9998016-0.7098999,8.0367889,1.0185852,9.1121979,5.1852112        c0.8850098,4.7566833-0.8187866,8.0449829-5.1092834,9.8643799l1.128479,4.2189941        c0.1946106,0.7541199-0.1598816,1.4260254-1.0623779,2.0150146l-0.1305237,0.0336914        c-0.8522034,0.2200012-1.5517883-0.0346985-2.0956879-0.7647095c-0.1647949-0.4850769-0.5863953-1.9653931-1.2649078-4.440979        c-2.2600861,0.5437012-4.0011902,0.6963806-5.2232971,0.4578857c-1.4478912-0.2460938-2.2825012-0.7956848-2.502594-1.6488037        c-0.510498-1.9779968,0.845993-2.6183777,2.8453979-2.1586914c0.8471069,0.2166138,2.153595,0.1434021,3.9194946-0.2203064        c-0.6377869-2.3674927-1.4123993-5.2402954-2.3238983-8.6185913c-4.5654907,0.3475037-7.3412933-1.3890991-8.327301-5.2096863        c-1.0434875-4.0432129,0.490799-7.0173035,4.6018982-8.9224243l-0.4690857-1.8175964        c-0.360611-1.3970947-0.4005127-2.6661072,1.1095886-3.0557861c2.0608063-0.5319214,2.1761017,1.7131958,2.2483978,1.8132935        L250.4189911,278.3756104z M245.7592926,287.5304871c0.4532013,1.7559204,1.8101044,2.6455078,4.0709076,2.6684265        c-0.5737-2.1729126-1.1946106-4.5250244-1.8609009-7.0566101        C246.0198975,284.2257996,245.2838898,285.6882935,245.7592926,287.5304871z M254.3643951,293.2026978l2.1458893,8.0116882        c2.0050049-1.0713806,2.8551025-2.8138733,2.5481262-5.2271729        C258.9870911,295.8868103,258.7537842,292.9565125,254.3643951,293.2026978z" class="colorfff svgShape"></path><path fill="#3d3936" d="M121.4272003 311.381897c-.1557999-.2277832-.097702-.539093.1298981-.6950989l6.1406021-4.2049866c.2289963-.1558228.5391006-.0975037.6952896.1300964.1558075.2277832.097702.539093-.1298981.6950989l-6.1405945 4.2049866C121.8964996 311.6665955 121.5849991 311.6117859 121.4272003 311.381897zM126.5033951 313.7391052c-.2612991-.0885925-.4013977-.3726196-.3129959-.6340027l1.0093002-2.978302c.0887985-.2616882.3740005-.401886.634201-.3132935.2612991.0886841.4013901.3725891.3129959.6340942l-1.0093002 2.978302C127.0501938 313.683197 126.7708969 313.8287048 126.5033951 313.7391052z" class="color3d3936 svgShape"></path><path fill="#52adff" d="M520.0839233,329.8172913H404.3645935c-3.8368835,0-7.3823853-2.0470886-9.3006897-5.3699951l0,0      l-45.4199219-78.7899933l23.0600281-16.2299957l36.4799805,47.8699951l3.3799133-29.6600037      c2.1200867-18.5599976,17.4599915-32.7799988,36.1200867-33.5l48.0200195-1.8300018      c12.4198914-0.4799957,23.4700012,7.8500061,26.4299622,19.9199982l17.4099121,70.8399963      C543.8438721,316.4672852,533.8839722,329.4772949,520.0839233,329.8172913z" class="color52adff svgShape"></path><rect width="59.639" height="1" x="409.185" y="319.123" fill="#3d3936" class="color3d3936 svgShape"></rect><path fill="#ffffff" d="M486.6210938,269.4649963c0,15.9599915-12.9399109,28.8999939-28.9099121,28.8999939      c-15.9598999,0-28.8998718-12.9400024-28.8998718-28.8999939c0-15.9600983,12.9399719-28.8999939,28.8998718-28.8999939      C473.6811829,240.5650024,486.6210938,253.5048981,486.6210938,269.4649963z" class="colorfff svgShape"></path><path fill="#189aea" d="M409.6138916,329.8172913h-5.2492981c-3.8368835,0-7.3823853-2.0470886-9.3006897-5.3699951l0,0      l14.1200867-47.1499939L409.6138916,329.8172913z" class="color189aea svgShape"></path><polygon fill="#189aea" points="496.14 275.982 472.248 312.423 502.317 299.333" class="color189aea svgShape"></polygon><path fill="#3d3936" d="M409.1845093,329.8530884c-0.2763062,0-0.5-0.223877-0.5-0.5v-52.0531921      c0-0.2760925,0.2236938-0.5,0.5-0.5c0.2763977,0,0.5,0.2239075,0.5,0.5v52.0531921      C409.6845093,329.6292114,409.460907,329.8530884,409.1845093,329.8530884z" class="color3d3936 svgShape"></path><path fill="#ffa18a" d="M534.819519,473.0943909l11.9649658,26.0737l-76.132782,4.9454956l-0.5825195,27.8796997        l95.6529846-0.4892578c15.3495483-0.0853271,25.7614136-15.6432495,19.9869995-29.8654175l-18.1570435-44.5830994        L534.819519,473.0943909z" class="colorffa18a svgShape"></path><polygon fill="#3d3936" points="571.514 466.784 567.552 457.056 534.82 473.094 537.188 478.255" class="color3d3936 svgShape"></polygon><path fill="#f66b78" d="M528.7971802,534.9324951l7.0449219-59.4902954l36.1801758-18.3727112l-15.5316772-29.2796936        c-4.7579956-8.9696045-14.0809937-14.5776062-24.234375-14.5776062H464.34021        c-9.330719,0-18.021698,4.7426147-23.0703125,12.5895081l-20.1032104,31.2453918l37.1813965,14.0899048l-29.476593,63.7955017        H528.7971802z" class="colorf66b78 svgShape"></path><path fill="#ffa18a" d="M424.217804,458.2033997l-8.264801,12.2984924l-51.5516052-60.8208008l-18.6697998,13.4017029        l53.4208069,80.9151917c8.4331055,12.8256226,27.151886,13.0819092,35.9329834,0.4920044l23.2626953-33.3529968        L424.217804,458.2033997z" class="colorffa18a svgShape"></path><polygon fill="#3d3936" points="453.818 477.631 458.348 471.137 424.218 458.203 423.739 458.916" class="color3d3936 svgShape"></polygon><rect width="23.66" height="25.005" x="488.174" y="385.853" fill="#ffa18a" class="colorffa18a svgShape"></rect><path fill="#3d3936" d="M506.8238831,385.8529968c-1.4599915,9.3399048-9.1298828,16.6199036-18.6498718,17.5099182v-17.5099182        H506.8238831z" class="color3d3936 svgShape"></path><path fill="#ffa18a" d="M513.0648804,379.4566956c0,11.5299988-9.3500977,20.8799133-20.8798828,20.8799133        c-11.5299988,0-20.8700867-9.3499146-20.8700867-20.8799133s9.3400879-20.8700867,20.8700867-20.8700867        C503.7147827,358.5866089,513.0648804,367.9266968,513.0648804,379.4566956z" class="colorffa18a svgShape"></path><path fill="#3d3936" d="M470.4285889,371.0983887c1.2709961,2.3120117,9.032196,10.1277161,31.1408997-0.6514893        c0,0-12.2434998,4.8994141-1.9378052,11.417511c0,0-11.4576721,15.539093-2.7305908,17.0879822        c10.142395,1.8001099,16.110321-0.4347839,19.3136902-5.1770935        c4.3901367-6.4990845,9.005127-31.1636963-4.3808899-30.1440125c0,0-2.3504944-13.1988831-23.6598816-12.5956726        C470.149292,351.5456848,466.6919861,364.3015137,470.4285889,371.0983887z" class="color3d3936 svgShape"></path><path fill="#ffa18a" d="M502.1268005,383.9634094c0,2.8616943-2.322113,5.1836853-5.1837158,5.1836853        c-2.8616943,0-5.1835938-2.321991-5.1835938-5.1836853c0-2.869812,2.3218994-5.191803,5.1835938-5.191803        C499.8046875,378.7716064,502.1268005,381.0935974,502.1268005,383.9634094z" class="colorffa18a svgShape"></path><path fill="#3d3936" d="M496.9428101,389.6470032c-0.5722046,0-1.1377258-0.0852051-1.680603-0.2528992        c-0.2642212-0.0815125-0.4117126-0.3616028-0.3301086-0.6255188c0.0809937-0.2635803,0.3612976-0.4125977,0.625-0.3300781        c0.4476929,0.1384888,0.9136047,0.2084961,1.3857117,0.2084961c2.5829773,0,4.684082-2.1010132,4.684082-4.6835022        c0-3.1566162-3.0744934-5.4330139-6.0971985-4.4747009c-0.2655945,0.0834961-0.5438843-0.0628967-0.6274109-0.3258972        c-0.0834961-0.2632141,0.0625-0.5441895,0.3257141-0.6277161c3.6686096-1.1591797,7.3988953,1.5975037,7.3988953,5.4283142        C502.6268921,387.0975037,500.0770874,389.6470032,496.9428101,389.6470032z" class="color3d3936 svgShape"></path><path fill="#ffc67b" d="M516.5064697,413.2121887v-3.6730957c0-2.2489014-1.9546509-3.9985962-4.1898804-3.7503967        l-25.3000793,2.8092957c-2.0476074,0.2272949-3.5344238,2.0551147-3.34021,4.1061096l0.0480957,0.5080872H516.5064697z" class="colorffc67b svgShape"></path><path fill="#ffa18a" d="M471.5922852,378.7716064c0,0-1.1658936,6.4444885-2.5106812,9.1434021        c-1.3448181,2.6987915,2.7677002,2.7630005,7.7797852,0.4497986" class="colorffa18a svgShape"></path><path fill="#ffffff" d="M486.5463867,382.0776062c0,0-2.4726868,2.9483032-5.5159912,2.9483032        c-0.0951843,0-0.1903992,0-0.2854004-0.0190125c-2.9103088-0.1616821-5.2213135-2.9292908-5.2213135-2.9292908        c0.1001282-0.055603,2.4612122-2.9482117,5.5067139-2.9482117        C484.0737,379.1293945,486.5463867,382.0776062,486.5463867,382.0776062z" class="colorfff svgShape"></path><path fill="#3d3936" d="M480.7449951 385.006897c-2.9103088-.1616821-5.2213135-2.9292908-5.2213135-2.9292908s2.1590271-2.577301 4.9265137-2.9102173C481.9296875 380.8175964 482.0285034 383.2662048 480.7449951 385.006897zM479.3421936 392.6853943c-.2011108-.1894836-.2103882-.5058899-.0209961-.7067871.1879883-.2008972.5043945-.2105103.7051086-.022522l0 0c.089386.0818176 2.1938782 1.9805298 4.6659851-.2447815.2051086-.184906.5215149-.1683044.7061157.0371094.1846008.2052917.1679993.5213928-.0371094.7059937C483.2678833 394.338501 480.7948914 394.0596008 479.3421936 392.6853943z" class="color3d3936 svgShape"></path><path fill="#ffc67b" d="M208.2068024,370.0906067l7.8389893,34.077301c0.5311127,2.3092041-1.2229004,4.5126038-3.592392,4.5126038      h-40.9949036c-1.7174988,0-3.2073975-1.1861267-3.592392-2.8598022l-7.838913-34.077301      c-0.531189-2.3092041,1.2228088-4.5126038,3.5923004-4.5126038h40.9949036      C206.3318939,367.2308044,207.8217926,368.4169006,208.2068024,370.0906067z" class="colorffc67b svgShape"></path><path fill="#f66b78" d="M273.9151001,370.0906067l7.8389893,34.077301      c0.5312195,2.3092041-1.2229004,4.5126038-3.5924072,4.5126038h-40.9947815      c-1.7174988,0-3.2073975-1.1861267-3.5924072-2.8598022l-7.8389893-34.077301      c-0.5312042-2.3092041,1.2228851-4.5126038,3.592392-4.5126038h40.9948883      C272.0401917,367.2308044,273.5300903,368.4169006,273.9151001,370.0906067z" class="colorf66b78 svgShape"></path><path fill="#dee8ff" d="M269.2572937 426.7080994h-98.6269989c-.2762909 0-.5-.2239075-.5-.5s.2237091-.5.5-.5h98.6269989c.2763062 0 .5.2239075.5.5S269.5335999 426.7080994 269.2572937 426.7080994zM319.4530945 437.3169861H172.7025909c-.2763977 0-.5-.223877-.5-.5 0-.2761841.2236023-.5.5-.5h146.7505035c.2763062 0 .5.2238159.5.5C319.9530945 437.0931091 319.7294006 437.3169861 319.4530945 437.3169861zM250.7948914 447.9255981h-76.019989c-.276413 0-.5-.2239075-.5-.5s.223587-.5.5-.5h76.019989c.2763062 0 .5.2239075.5.5S251.0711975 447.9255981 250.7948914 447.9255981z" class="colordee8ff svgShape"></path><path fill="#a3a3f5" d="M280.1293945,481.7398071c0.7863159,3.334198-1.287384,6.0474854-4.6213989,6.0474854       c-3.3458862,0-6.6872864-2.7132874-7.4736023-6.0474854c-0.7889099-3.3457031,1.2756042-6.0475159,4.6214905-6.0475159       C275.9898987,475.6922913,279.3404846,478.394104,280.1293945,481.7398071z" class="colora3a3f5 svgShape"></path><path fill="#3d3936" d="M275.507782 488.2872009c-3.5527954 0-7.1235962-2.8858032-7.9599915-6.4325867-.8667908-3.6750183 1.4490051-6.6624146 5.1079102-6.6624146 3.5527039 0 7.1235046 2.8858032 7.9605103 6.4328918l0 0C281.4819946 485.2970886 279.1481934 488.2872009 275.507782 488.2872009zM272.6557007 476.1921997c-3.0040894 0-4.855011 2.3800964-4.1343079 5.4328918.7359009 3.1220093 3.8702087 5.6621094 6.9863892 5.6621094 3.0058289 0 4.8496094-2.4028931 4.1347046-5.4325867C278.906189 478.7322998 275.7719116 476.1921997 272.6557007 476.1921997zM390.6347046 161.8311005H228.1458893c-.2762909 0-.5-.2238007-.5-.5V138.449295c0-12.8927917 10.4893036-23.3817978 23.3819122-23.3817978h139.6069031c12.8925781 0 23.3813782 10.489006 23.3813782 23.3817978C414.0160828 151.3421021 403.5272827 161.8311005 390.6347046 161.8311005zM228.6458893 160.8311005h161.9888153c12.3412781 0 22.3813782-10.0404968 22.3813782-22.3818054 0-12.3412933-10.0401001-22.3817978-22.3813782-22.3817978H251.0278015c-12.3413086 0-22.3819122 10.0405045-22.3819122 22.3817978V160.8311005z" class="color3d3936 svgShape"></path><path fill="#ffffff" d="M266.3670959,138.8329926c0,7.0740051-5.7489929,12.8230133-12.8231964,12.8230133      c-7.0832977,0-12.822998-5.7490082-12.822998-12.8230133c0-7.0834961,5.7397003-12.8230896,12.822998-12.8230896      C260.618103,126.009903,266.3670959,131.7494965,266.3670959,138.8329926z" class="colorfff svgShape"></path><path fill="#3d3936" d="M253.5438995,152.1558075c-7.3462067,0-13.3227997-5.9765015-13.3227997-13.3227081      c0-7.3464966,5.976593-13.3232956,13.3227997-13.3232956c7.3466949,0,13.3231964,5.976799,13.3231964,13.3232956      C266.8670959,146.179306,260.8905945,152.1558075,253.5438995,152.1558075z M253.5438995,126.5098038      c-6.7949066,0-12.3227997,5.5280991-12.3227997,12.3232956c0,6.7947083,5.5278931,12.3227081,12.3227997,12.3227081      s12.3231964-5.5279999,12.3231964-12.3227081C265.8670959,132.0379028,260.3388062,126.5098038,253.5438995,126.5098038z" class="color3d3936 svgShape"></path><path fill="#ffffff" d="M338.6893005,132.0711975L338.6893005,132.0711975c0,1.5628967-1.2669067,2.8298035-2.8298035,2.8298035      h-52.9302063c-1.5628052,0-2.8298035-1.2669067-2.8298035-2.8298035l0,0c0-1.5628967,1.2669983-2.8298035,2.8298035-2.8298035      h52.9302063C337.4223938,129.241394,338.6893005,130.5083008,338.6893005,132.0711975z" class="colorfff svgShape"></path><path fill="#3d3936" d="M335.8592834 135.401001h-52.9300842c-1.8359985 0-3.3295898-1.4936981-3.3295898-3.329895 0-1.8362122 1.4935913-3.3298035 3.3295898-3.3298035h52.9300842c1.8365173 0 3.3301086 1.4935913 3.3301086 3.3298035C339.1893921 133.9073029 337.6958008 135.401001 335.8592834 135.401001zM282.9291992 129.7413025c-1.2846985 0-2.3295898 1.045105-2.3295898 2.3298035s1.0448914 2.329895 2.3295898 2.329895h52.9300842c1.2846985 0 2.3301086-1.0451965 2.3301086-2.329895s-1.0454102-2.3298035-2.3301086-2.3298035H282.9291992zM386.7669983 142.6578064H280.0996094c-.2763977 0-.5-.2239075-.5-.5 0-.2761078.2236023-.5.5-.5h106.6673889c.2763977 0 .5.2238922.5.5C387.2669983 142.4338989 387.043396 142.6578064 386.7669983 142.6578064zM368.7470093 148.9246063h-88.6473999c-.2763977 0-.5-.2238007-.5-.5 0-.2761078.2236023-.5.5-.5h88.6473999c.2763977 0 .5.2238922.5.5C369.2470093 148.7008057 369.023407 148.9246063 368.7470093 148.9246063z" class="color3d3936 svgShape"></path><path fill="#ffa18a" d="M459.9035034,213.7126007l-2.3497925-9.0312042c9.3452759,0,16.5627747-5.3325958,17.9627991-15.0681915      l4.9164734,23.3573914C482.1911011,219.8054047,461.8468018,220.6959991,459.9035034,213.7126007z" class="colorffa18a svgShape"></path><path fill="#3d3936" d="M459.4212952,213.8468018c-0.0737-0.2662048,0.0820923-0.5418091,0.3476868-0.615799      c0.265625-0.0742035,0.5415039,0.081604,0.6162109,0.347702c1.8066101,6.4922028,21.1112061,5.5316925,19.5635071-0.4837036      c-0.0689087-0.2673035,0.0922852-0.5400085,0.3598022-0.6085968c0.2647095-0.0684052,0.5401001,0.0919952,0.6088867,0.3595886      C482.8761902,220.4653931,461.5129089,221.360199,459.4212952,213.8468018z" class="color3d3936 svgShape"></path><path fill="#ffa18a" d="M475.4092102,181.5243073c1.7734985,11.5384979-3.0325012,21.1335907-14.5771179,22.9080963      c-11.5386047,1.7734985-22.3370972-6.1480103-24.1105957-17.6865082      c-1.7744141-11.5444946,6.146698-22.3428955,17.6853027-24.116394      C465.9513855,160.8551025,473.6347046,169.9797974,475.4092102,181.5243073z" class="colorffa18a svgShape"></path><path fill="#3d3936" d="M469.0744019,169.2808075c0,0-6.3788147,12.4541931,6.1777954,11.3164978l-0.3234863,11.7014923      c0,0,4.7361755-1.1261902,7.2955933-5.3591003c3.5558777-5.8807983,10.3121948-29.4185028-6.4570007-28.8898926      c0,0,3.2920837-18.8923035-26.5848999-13.5514069c-24.4006958,4.3619995-27.4096069,32.1432953-12.6074219,36.9403992      c0,0,2.7913208-9.577301,14.2197266-15.1069946c-0.5437012,2.0681,0.0690002,4.7077942,1.1059875,7.5572968      C456.504303,169.6761017,462.2301025,168.142807,469.0744019,169.2808075z" class="color3d3936 svgShape"></path><path fill="#ffa18a" d="M479.0545044,182.3668976c0,2.8910065-2.3406067,5.231308-5.2247925,5.231308      c-2.8911133,0-5.2315063-2.3403015-5.2315063-5.231308c0-2.884491,2.3403931-5.2248993,5.2315063-5.2248993      C476.7138977,177.1419983,479.0545044,179.4824066,479.0545044,182.3668976z" class="colorffa18a svgShape"></path><path fill="#3d3936" d="M474.4194031,187.5894012c-0.0567017-0.2700043,0.1161804-0.5350952,0.3862-0.5919952      c2.1723938-0.4568024,3.7489929-2.4043121,3.7489929-4.6304016c0-2.6054993-2.1195984-4.7250977-4.7250977-4.7250977      c-1.6727905,0-3.237793,0.8959961-4.0844116,2.3385925c-0.1401978,0.2378082-0.445282,0.3177032-0.684082,0.1779938      c-0.2383118-0.1395874-0.3179016-0.4459991-0.1782227-0.6842957c1.0254211-1.7471008,2.920929-2.8322906,4.9467163-2.8322906      c3.1567993,0,5.7250977,2.5683899,5.7250977,5.7250977c0,2.6965027-1.910614,5.0553894-4.5429077,5.608902      C474.7441101,188.0323944,474.4764099,187.8619995,474.4194031,187.5894012z" class="color3d3936 svgShape"></path><path fill="#ffffff" d="M438.6893921,184.7483063c0.1000061,0.0287933,2.2209167,1.6319885,4.4960022,1.167099      c2.2658081-0.4630127,3.6856995-2.8392029,3.6856995-2.8392029c-0.1004944-0.0218048-2.7463074-1.9884949-5.1285095-0.9862976      C439.8522034,182.7938995,438.6893921,184.7483063,438.6893921,184.7483063z" class="colorfff svgShape"></path><path fill="#3d3936" d="M438.6893921,184.7483063c0,0,1.7453003,1.2740936,3.7145081,1.2492981      c0.3768921-1.3480988,0.1225891-2.7864075-0.6613159-3.9076996      C439.8522034,182.7938995,438.6893921,184.7483063,438.6893921,184.7483063z" class="color3d3936 svgShape"></path><path fill="#ffffff" d="M452.0021057,183.3800964c0.1000061,0.0288086,2.6749878,1.9636078,5.4107056,1.4046021      c2.7267761-0.5572968,4.4356995-3.4169006,4.4356995-3.4169006s-2.6957092-1.9694977-5.4226074-1.4122009      c-0.2578125,0.0527039-0.5115051,0.1251984-0.7492981,0.2252045      C453.4014893,181.0281067,452.0021057,183.3800964,452.0021057,183.3800964z" class="colorfff svgShape"></path><path fill="#3d3936" d="M452.0021057 183.3800964c0 0 2.1004028 1.5333099 4.4702759 1.5034027.4535217-1.6221924.147522-3.3531952-.7957764-4.7026978C453.4014893 181.0281067 452.0021057 183.3800964 452.0021057 183.3800964zM454.1239929 177.4178009c-.2030945-.1867981-.2167969-.5032043-.0297852-.7062988.1864929-.2026062.5004883-.216095.7035828-.032196.0903015.0787964 2.0117188 1.6927948 5.917511-.6201019.2388-.1408997.5448914-.0617981.6849976.1754913.140686.2375031.0621033.5442047-.175293.6847992C459.0839844 178.1871948 455.880188 179.0346985 454.1239929 177.4178009zM439.1878967 178.7230072c-.2030945-.1870117-.2167969-.5032043-.0296936-.706604.1860046-.2024078.4994812-.2160034.7030945-.0326996l0 0c.0795898.0706024 2 1.7006989 5.9179077-.6191101.2388-.1408997.5449829-.0617981.6850891.1755066.1405945.2375946.0620117.5442047-.175293.6847992C444.1434937 179.4951935 440.9292908 180.3390045 439.1878967 178.7230072zM454.7683105 198.0702972c-1.4878235 2.1509094-4.140625 2.2238007-6.1834106.7463989-2.1394043-1.5267944-3.3139954-4.2702942-3.3139954-4.2702942s4.7402954 2.0384979 10.8480835-1.6362C456.118988 192.910202 456.1693115 196.0227966 454.7683105 198.0702972z" class="color3d3936 svgShape"></path><path fill="#ffffff" d="M453.8345032,197.7682037c-1.0383911,1.5011902-2.8900146,1.5520935-4.3157959,0.5208893      C450.5542908,196.7919006,452.4043884,196.7333069,453.8345032,197.7682037z" class="colorfff svgShape"></path><path fill="#3d3936" d="M447.7348022 189.5794067c-.2563171-.1023102-.3813171-.3933105-.2788086-.6496124l1.3301086-3.3317871c.1474915-.369812.6497803-.4278107.8764038-.0979004l1.8666992 2.7162933c.1562805.2274933.0986938.5388031-.1289063.6952972-.2260132.1562042-.5375977.0991058-.6953125-.128891l-1.3368835-1.9456024-.9833984 2.4631958C448.283905 189.5529022 447.9967957 189.683197 447.7348022 189.5794067zM472.3700867 183.428299c-.2621765 0-.4824829-.2046051-.4985962-.4700012-.1333008-2.2120972 1.7807922-3.0670929 2.8110962-3.2104034.2723999-.0365906.5238953.1520996.5630188.4248047.0384827.2727051-.1509094.5256042-.4239197.5657043-.2108765.0307007-2.0609741.3540039-1.9520874 2.1598969C472.8869019 183.1858063 472.6585083 183.428299 472.3700867 183.428299z" class="color3d3936 svgShape"></path><path fill="#3d3936" d="M471.9335022 182.785202c-.1396179-.2382965-.0599976-.5446014.1782837-.6842957.0913086-.0535126 2.2402039-1.2938995 3.4458008-.0832062.1948242.1954956.1938171.512207-.0019836.7070007-.1963196.1943054-.5126953.1938019-.7070007-.0019989-.5469055-.5494995-1.8262024.0034027-2.2310181.2409973C472.3807068 183.1024933 472.0733948 183.0245056 471.9335022 182.785202zM457.5537109 204.6813965c0 0 7.8576965.5229034 12.9839783-4.7845001 0 0-1.5740051 8.2062988-11.276001 11.3488007L457.5537109 204.6813965z" class="color3d3936 svgShape"></path><polyline fill="#ffffff" points="249.089 138.626 251.819 141.787 257.999 135.879" class="colorfff svgShape"></polyline><path fill="#3d3936" d="M251.4409027 142.1138l-2.730011-3.1607971c-.1806946-.2089996-.157196-.5249023.051712-.7053986.2075958-.1799011.5234985-.1576996.7050934.0514984l2.3863068 2.7630005 5.7987976-5.5444031c.2006836-.1909943.5166016-.1835938.7070007.0157928.1908875.1995087.1835938.5161133-.0155945.7068024l-6.1792145 5.9080048C251.9580994 142.3459015 251.6277924 142.3303986 251.4409027 142.1138zM458.082489 471.5606079c-.2338867-.146698-.3046875-.4553223-.1582031-.689209l12.9667969-20.6784973c.1469116-.2336121.4560242-.3044128.6894226-.1578979.2338867.146698.3046875.4552917.1582031.689209L458.7719116 471.40271C458.6247864 471.6365967 458.3162842 471.7073059 458.082489 471.5606079zM535.8422241 475.9421997c-.2763062 0-.5-.2239075-.5-.5v-23.5748901c0-.2762146.2236938-.5.5-.5.2763672 0 .5.2237854.5.5v23.5748901C536.3422241 475.7182922 536.1185913 475.9421997 535.8422241 475.9421997zM495.8421936 384.21521c-.2323914-.1490173-.2998047-.458313-.1507874-.6907043 1.4969788-2.3356934 3.5419922-2.0559082 3.6283875-2.0435181.2728882.0413208.460907.2962036.4194031.5691223-.0404968.2714844-.2939148.4595032-.5649109.4201965-.0733032-.008606-1.5108032-.1694031-2.6410828 1.593689C496.3834839 384.2980957 496.0723877 384.3631897 495.8421936 384.21521z" class="color3d3936 svgShape"></path><path fill="#3d3936" d="M498.2832031 384.7137146c-.1513977 0-.300293-.0681152-.3984985-.1973267-.0278015-.0348816-.4985046-.5979004-1.565918-.363678-.2689819.0570984-.5365906-.111908-.5951843-.3816223-.0591125-.2697754.1117859-.536377.3812866-.5954895 1.7354126-.3782043 2.5464172.6953125 2.5801086.7412109.164093.2223816.1166992.5354004-.1054993.6991882C498.4902039 384.6820068 498.3862 384.7137146 498.2832031 384.7137146zM350.6127014 225.2120056l-1.7397156-2.7420044c-.1479797-.2331085-.0785828-.5419006.1542969-.6898956.2339172-.1477051.5429993-.0791016.6903992.1542969l1.7398071 2.7418976c.1479187.2332001.0786133.5420074-.1542969.6900024C351.0657043 225.5162964 350.7583923 225.4416962 350.6127014 225.2120056zM346.2460022 229.3209076l-1.2142944-1.5447083c-.1708984-.2169952-.1328125-.5314941.0839844-.7021942.2177124-.1711121.5317078-.1328125.7021179.0839996l1.214386 1.544693c.1708984.2171021.1328125.5315094-.0839844.7022095C346.729187 229.5767059 346.4154053 229.5363007 346.2460022 229.3209076z" class="color3d3936 svgShape"></path><g fill="#000000" class="color000 svgShape"><path fill="#3d3936" d="M353.1634827,217.7846985l-1.0424805-1.7633972      c-0.1405945-0.2375031-0.0620117-0.5442047,0.1757813-0.6847992c0.2383118-0.1399078,0.5445251-0.0617981,0.6846008,0.1759949      l1.042511,1.763504c0.1405945,0.2375031,0.0620117,0.5440979-0.1758118,0.6847992      C353.6130981,218.0998993,353.3052063,218.0247955,353.1634827,217.7846985z" class="color3d3936 svgShape"></path></g><g fill="#000000" class="color000 svgShape"><path fill="#3d3936" d="M365.3309937,228.7371063c-3.9689026-0.365509-4.7851868-3.1585999-3.1395874-6.671402      l-2.2221985-0.1311035c-1.2080078-0.0711975-2.316925-0.6674042-3.042511-1.635498      c-1.4594116-1.9470062-0.5227051-3.8986969-0.4906921-4.3601074c0.157196-0.6876984,0.7606812-1.168396,1.4667969-1.168396      h1.3695984c0.2763977,0,0.5,0.2239075,0.5,0.5c0,0.2761078-0.2236023,0.5-0.5,0.5h-1.3695984      c-0.2368164,0-0.4395142,0.1611023-0.492218,0.3917999c-0.0417786,0.5041962-0.8162842,2.0263062,0.3164063,3.5368958      c0.5483093,0.7324066,1.387207,1.1833038,2.3008118,1.2373047l2.9927063,0.1764984      c0.3743896,0.0220032,0.5922852,0.4347992,0.3993835,0.7566071c-1.7277832,2.8457947-1.6217957,5.537796,2.0028992,5.8717957      c0.2749023,0.0251923,0.4775085,0.2687988,0.4522095,0.5437012      C365.8493958,228.5621948,365.603302,228.7626953,365.3309937,228.7371063z" class="color3d3936 svgShape"></path></g><g fill="#000000" class="color000 svgShape"><path fill="#ffffff" d="M440.9866028,367.2309875v0.0086975c0,18.6911011-15.1624146,33.8531189-33.8531189,33.8531189        c-18.6933899,0-33.8622742-15.1528015-33.8622742-33.8531189v-0.0086975        c0-18.6997986,15.1624756-33.8621826,33.8622742-33.8621826        C425.8590088,333.3688049,440.9866028,348.5679932,440.9866028,367.2309875z" class="colorfff svgShape"></path><path fill="#3d3936" d="M407.1333008,401.592804c-18.9385071,0-34.361908-15.3165894-34.361908-34.3532104        c0-18.9560852,15.4146118-34.3708801,34.361908-34.3708801c18.9996033,0,34.3534851,15.4000854,34.3534851,34.3622742        v0.008606C441.4867859,386.1820068,426.075592,401.592804,407.1333008,401.592804z M407.1333008,333.8687134        c-18.3959961,0-33.361908,14.9662781-33.361908,33.3622742c0,18.6242065,15.118103,33.3618164,33.361908,33.3618164        c18.3910828,0,33.3534851-14.9620972,33.3534851-33.3532104v-0.008606        C440.4867859,348.8539124,425.6170044,333.8687134,407.1333008,333.8687134z" class="color3d3936 svgShape"></path><path fill="#ffc67b" d="M434.0187988,367.2309875v0.0069275c0,14.8444824-12.0419922,26.8862-26.8862915,26.8862        c-14.8463135,0-26.8935242-12.0344238-26.8935242-26.8862v-0.0069275        c0-14.8513794,12.0421143-26.8934937,26.8935242-26.8934937        C422.0043945,340.3374939,434.0187988,352.4088135,434.0187988,367.2309875z" class="colorffc67b svgShape"></path><path fill="#3d3936" d="M407.132782,394.624115c-15.0975952,0-27.3935852-12.2096252-27.3935852-27.3862        c0-15.1116028,12.2886047-27.4004211,27.3935852-27.4004211c15.148407,0,27.3862,12.2788086,27.3862,27.3934937v0.0069275        C434.5189819,382.3387146,422.2333984,394.624115,407.132782,394.624115z M407.132782,340.8374939        c-14.5532837,0-26.3935852,11.8401184-26.3935852,26.3934937c0,14.7338257,11.9599915,26.3931274,26.3935852,26.3931274        c14.5493164,0,26.3862-11.8369141,26.3862-26.3862v-0.0069275        C433.5189819,352.7175903,421.7828064,340.8374939,407.132782,340.8374939z" class="color3d3936 svgShape"></path><path fill="#ffffff" d="M404.5006104,354.8612061c1.6543884-0.427002,2.8892822-0.5657043,3.7037964-0.4161987        c0.8674011,0.1809998,1.3981018,0.6455994,1.5911865,1.394104l0.0082092,0.0315857        c0.1117859,0.8258057-0.3856201,1.3813171-1.4923096,1.6669006c-0.9874878,0.0076904-1.9912109,0.1260071-3.0119019,0.3557129        l1.7897034,6.6725769c4.2629089-0.6051941,6.852417,0.8684998,7.7691956,4.4210205        c0.7546082,4.0556946-0.6980896,6.8592834-4.3562012,8.4105835l0.9620972,3.5971985        c0.1659241,0.6429138-0.1362,1.2159119-0.9057922,1.7181091l-0.1112976,0.0286865        c-0.726593,0.1875-1.322998-0.0295715-1.7867126-0.6520996c-0.1404724-0.4135742-0.5-1.6755981-1.0785828-3.786377        c-1.927002,0.4635925-3.411499,0.593689-4.4534912,0.3903809c-1.2344055-0.2097778-1.9460144-0.6783752-2.1336975-1.4057922        c-0.4353027-1.6864929,0.721283-2.2324829,2.4259949-1.8404846c0.72229,0.1846008,1.8363037,0.1221924,3.3418884-0.1879272        c-0.5437927-2.0184937-1.2041931-4.4678955-1.9813843-7.3483887c-3.8927002,0.2962952-6.2593079-1.1843872-7.1000061-4.441803        c-0.8897095-3.4473877,0.418396-5.9830933,3.923584-7.6074829l-0.3999939-1.5497131        c-0.3074036-1.1911926-0.3414001-2.2731018,0.946106-2.6054077c1.7579041-0.4537048,1.8447876,1.4460144,1.9170837,1.5460205        L404.5006104,354.8612061z M400.52771,362.6668091c0.3863831,1.4971008,1.543396,2.2555847,3.4708862,2.275177        c-0.4891052-1.8527832-1.0184937-3.8580933-1.5864868-6.0166931        C400.7499084,359.8492126,400.122406,361.0960999,400.52771,362.6668091z M407.8645935,367.5029907l1.8297119,6.8310242        c1.7095032-0.9135132,2.4342041-2.3993225,2.1724854-4.4569092        C411.7955017,369.7767944,411.6056824,367.2932129,407.8645935,367.5029907z" class="colorfff svgShape"></path></g><g fill="#000000" class="color000 svgShape"><path fill="#3d3936" d="M546.3139038,499.3367004c-0.0932007-0.2600098,0.0419922-0.5462952,0.3023071-0.6394043      l3.9857788-1.4274902c0.2568359-0.0932007,0.5458984,0.0419922,0.6392212,0.302002      c0.0932007,0.2601013-0.0419922,0.5463867-0.3023071,0.6394958l-3.9857788,1.4273987      C546.6923218,499.7325134,546.4066772,499.5953979,546.3139038,499.3367004z" class="color3d3936 svgShape"></path></g><g fill="#000000" class="color000 svgShape"><path fill="#3d3936" d="M549.4002686,502.0516052l-1.274353-1.144104c-0.2055054-0.1845093-0.2225952-0.5003967-0.038147-0.7059937      c0.1851196-0.2058105,0.5010376-0.2218933,0.7061157-0.0381165l1.2744141,1.1440125      c0.2056274,0.1846008,0.2227173,0.5004883,0.0380859,0.7060852      C549.9235229,502.2177124,549.6077271,502.2372131,549.4002686,502.0516052z" class="color3d3936 svgShape"></path></g><g fill="#000000" class="color000 svgShape"><path fill="#3d3936" d="M412.6488953,473.1413879c-0.1723938-0.2154846-0.137207-0.5301819,0.0786133-0.7025757      l2.9135742-2.3276062c0.2163086-0.1729126,0.5307007-0.1375122,0.7026062,0.0785828      c0.1723938,0.2155151,0.137207,0.5302124-0.0785828,0.7026062l-2.9136047,2.3276062      C413.1350098,473.3930054,412.820282,473.3565063,412.6488953,473.1413879z" class="color3d3936 svgShape"></path></g><g fill="#000000" class="color000 svgShape"><path fill="#3d3936" d="M416.3211975,475.103302c-0.2763062,0-0.5-0.2238159-0.5-0.5v-1.7738953c0-0.2760925,0.2236938-0.5,0.5-0.5      c0.2763977,0,0.5,0.2239075,0.5,0.5v1.7738953C416.8211975,474.8794861,416.5975952,475.103302,416.3211975,475.103302z" class="color3d3936 svgShape"></path></g><g fill="#000000" class="color000 svgShape"><path fill="#ffa18a" d="M345.8009949,423.1087952l-12.71521-19.1679993       c-0.8746033-1.457489-0.3440857-3.3595886,1.1604004-4.1511841c1.09552-0.5883179,2.4735107-0.4265137,3.3984985,0.4444885       l-0.8605957-1.4361877c-0.8703003-1.4759216-0.3461914-3.3507996,1.1622009-4.1599121       c1.1646118-0.6138,2.5761108-0.3774109,3.482605,0.5260925l-0.6755066-1.1312866       c-0.8704834-1.4507141-0.3508911-3.3486023,1.1621094-4.1600037c1.3611145-0.7203064,3.052002-0.2792053,3.8855896,1.0227051       l1.5359192,2.3930969c-0.6105957-1.4028931-0.0446167-3.077301,1.3381042-3.8113098       c1.320282-0.7089844,3.0505981-0.2904053,3.8855896,1.0227966l6.8666077,10.3480225l3.7833862-4.3537292       c0.52771-0.5982971,1.2957153-0.935791,2.0895081-0.9095764c1.8063049,0.0604858,3.0192871,1.8818054,2.3750916,3.5767822       l-3.2738953,10.5195007L345.8009949,423.1087952z" class="colorffa18a svgShape"></path><path fill="#3d3936" d="M350.5257874 398.8572998l-3.6019897-5.2872009c-.1557922-.2282104-.0967102-.5393066.1312866-.6947937.2290039-.1557007.5391235-.096405.6949158.131897l3.6019897 5.2871094c.1557922.2281799.0967102.5392761-.1312866.6947937C350.9920044 399.144104 350.6811829 399.0856018 350.5257874 398.8572998zM344.941803 401.1834106l-3.3857117-4.969696c-.1557922-.228302-.0966797-.5393066.1314087-.6948242.2290039-.1554871.5400085-.0964966.6947937.1318054l3.3857117 4.969696c.1557922.228302.0966797.5393066-.1313171.6949158C345.4079895 401.4703064 345.0971985 401.4118042 344.941803 401.1834106zM340.5409851 405.2149048l-3.2114868-4.7142944c-.1557007-.228302-.0965881-.5393066.131897-.6949158.2265015-.1557007.5390015-.096405.6943054.131897l3.2113953 4.7142944c.1557922.228302.0967102.5393066-.1318054.6949158C341.0079041 405.5018005 340.6964111 405.4433899 340.5409851 405.2149048z" class="color3d3936 svgShape"></path></g><g fill="#000000" class="color000 svgShape"><path fill="#ffa18a" d="M439.3467102,353.6860046l-19.0541077,6.4223938       c-1.4281006,0.4104004-2.9151917-0.4660034-3.2449036-1.9151001c-0.1438904-0.6083984-0.055603-1.2237854,0.2084045-1.7510986       c0.2042847-0.4078979,0.5243835-0.7663879,0.9324951-1.0192871l-1.4068909,0.4033813       c-1.4425964,0.4026184-2.9082031-0.4622803-3.2519226-1.9185791c-0.2561035-1.1219177,0.2615051-2.2609253,1.2288208-2.8231201       l-1.1076965,0.3157959c-1.4214172,0.4085083-2.9074097-0.4578857-3.2520142-1.9185791       c-0.3017883-1.3117981,0.4515991-2.6407166,1.7391052-3.0516052l2.3671875-0.7582092       c-1.3223877,0.199707-2.6091919-0.6554871-2.9177856-1.9887085c-0.3015137-1.2749023,0.441803-2.6420898,1.7391052-3.0515747       l10.2869873-3.4691162l-2.8251953-4.1762085c-0.3865051-0.5803833-0.4985962-1.3050842-0.2976074-1.9697876       c0.4579163-1.5119019,2.2695007-2.1263123,3.5559998-1.2004089l8.1477966,5.1347046L439.3467102,353.6860046z" class="colorffa18a svgShape"></path><path fill="#3d3936" d="M414.0335999 345.8374939c-.0913086-.260498.0455017-.5458984.3061829-.637207l5.2769165-1.851593c.2626038-.0913086.5458069.0458984.637207.3062134.0912781.260498-.0455017.5458984-.3062134.637207l-5.2767944 1.8514709C414.4103088 346.2355042 414.1251831 346.098114 414.0335999 345.8374939zM415.0575867 350.9666138c-.0912781-.2605286.0454102-.545929.3061218-.6374207l4.9599915-1.7402954c.262207-.0904846.5458984.0462036.637207.3063965.0912781.260498-.0454102.5458984-.3062134.6375122l-4.9598999 1.7402039C415.4310913 351.3648071 415.148407 351.2251892 415.0575867 350.9666138zM417.7265015 355.5025024c-.0913086-.260498.0454102-.5458984.3061829-.637207l4.7050171-1.6509094c.2622986-.09198.5458984.0462036.6372986.3062134.0913086.260498-.0455017.5458984-.3062134.637207l-4.7050781 1.6508789C418.1032104 355.9005127 417.8179932 355.7632141 417.7265015 355.5025024z" class="color3d3936 svgShape"></path></g><g fill="#000000" class="color000 svgShape"><path fill="#52adff" d="M502.3165894,299.3327942l-71.7887878,31.2521057l9.0805054,23.786499l83.8979187-23.8789978      c12.5620728-3.5754089,20.0219727-16.47229,16.8577881-29.1441956l-15.1777954-60.7832031" class="color52adff svgShape"></path></g><g fill="#000000" class="color000 svgShape"><path fill="#3d3936" d="M507.8841858,301.8017883l-5.7323914-1.9967957      c-0.2607117-0.0907898-0.398407-0.3760071-0.3075867-0.6366882c0.0907898-0.2608032,0.3759766-0.3981934,0.6366882-0.3076172      l5.7323914,1.9968262c0.2608032,0.0907898,0.3984985,0.3759766,0.3076172,0.6366882      C508.430603,301.7539063,508.1464844,301.8931885,507.8841858,301.8017883z" class="color3d3936 svgShape"></path></g><g fill="#000000" class="color000 svgShape"><path fill="#3d3936" d="M504.8544006,306.4487915l-1.5765991-3.8429871      c-0.105011-0.2554016,0.0170898-0.5473938,0.2723999-0.6524048c0.2558899-0.104187,0.5478821,0.0170898,0.6524048,0.2730103      l1.5765991,3.8429871c0.1049805,0.2554016-0.0169983,0.5473938-0.2723999,0.6524048      C505.2441101,306.8284912,504.9566956,306.6987915,504.8544006,306.4487915z" class="color3d3936 svgShape"></path></g><g fill="#000000" class="color000 svgShape"><path fill="#3d3936" d="M439.1410828,354.5495911l-9.0805969-23.7865906      c-0.0951843-0.2495117,0.0229187-0.5299988,0.2676086-0.6366882l71.394989-31.0806274l-9.9389954-37.5763855      c-0.0708008-0.2670898,0.0884094-0.540802,0.3554993-0.6112976c0.2666016-0.0697937,0.5410156,0.0881042,0.6112976,0.3554993      l10.0489197,37.991394c0.0628967,0.2388-0.0577087,0.487793-0.2837219,0.5863953l-71.3510742,31.0613098l8.7471008,22.9125977      l81.9422607-23.3225098c0.2637329-0.0756836,0.5425415,0.0783997,0.6177368,0.3440247      c0.0756836,0.2655945-0.0786133,0.5421753-0.3442383,0.6178894l-82.382782,23.4477844      C439.4993896,354.9223938,439.2347107,354.7947083,439.1410828,354.5495911z" class="color3d3936 svgShape"></path></g><g fill="#000000" class="color000 svgShape"><path fill="#ffffff" d="M177.7493896,379.2980957l3.9456024,19.0722046      c0.2109985,1.0202026-0.5679932,1.9769897-1.6098938,1.9769897h-4.7225037      c-0.7794952,0-1.4519043-0.5474854-1.6098022-1.3108826l-3.9454956-19.0722046      c-0.2111053-1.0202026,0.5679932-1.9768982,1.6098022-1.9768982h4.7225037      C176.9191895,377.9873047,177.5914917,378.53479,177.7493896,379.2980957z" class="colorfff svgShape"></path></g><g fill="#000000" class="color000 svgShape"><path fill="#ffffff" d="M192.4665985,386.8403015l2.3939056,11.5289001      c0.2119904,1.0205078-0.567215,1.9780884-1.6095123,1.9780884h-4.7220001c-0.7790985,0-1.4512024-0.546875-1.6095886-1.3096924      l-2.3939056-11.5289001c-0.2118988-1.0205078,0.5671997-1.9780884,1.6094971-1.9780884h4.7221069      C191.6360931,385.5306091,192.308197,386.0775146,192.4665985,386.8403015z" class="colorfff svgShape"></path></g><g fill="#000000" class="color000 svgShape"><path fill="#ffffff" d="M204.6600952,382.0551147l3.3703003,16.3156738      c0.2107086,1.0201111-0.5682983,1.9765015-1.6098938,1.9765015h-4.7228088      c-0.7796936,0-1.4521027-0.5477905-1.6098938-1.3114014l-3.3702087-16.3156738      c-0.2108002-1.0201111,0.5683136-1.9764099,1.6099091-1.9764099h4.722702      C203.829895,380.7438049,204.5023956,381.2915039,204.6600952,382.0551147z" class="colorfff svgShape"></path></g><g fill="#000000" class="color000 svgShape"><path fill="#ffffff" d="M256.4639893,400.4771118c-6.7399902,0-13.4200897-5.4601135-14.9200897-12.2001038      c-1.5-6.6799011,2.6501007-12.1098938,9.2899933-12.210022l3.7400055,12.2000122l6.8401031-7.7600098      c2.2200012,2.1100159,3.8798828,4.8200073,4.5400085,7.7700195      C267.45401,395.0169983,263.20401,400.4771118,256.4639893,400.4771118z" class="colorfff svgShape"></path></g><g fill="#000000" class="color000 svgShape"><path fill="#ffffff" d="M262.0932007,376.9751892l-6.8401031,7.7600098l-3.7400055-12.2000122      C251.6172028,372.5585022,257.0393982,372.1528931,262.0932007,376.9751892z" class="colorfff svgShape"></path></g><g fill="#000000" class="color000 svgShape"><path fill="#3d3936" d="M204.4533997,260.6495056c-0.1016083,0-0.2041016-0.0310059-0.2929993-0.0952148    c-0.2236023-0.1620789-0.273407-0.4745789-0.1112976-0.6983032l23.6927948-32.6822815    c0.1616974-0.2239075,0.4732056-0.2734985,0.6983032-0.1114044c0.2236023,0.1620941,0.2733917,0.4745941,0.1112976,0.6983032    l-23.6929016,32.6822968C204.7610016,260.5780029,204.6082001,260.6495056,204.4533997,260.6495056z" class="color3d3936 svgShape"></path></g></svg>