<svg width="175" height="36" viewBox="0 0 175 36" fill="none" xmlns="http://www.w3.org/2000/svg">
<path d="M0 1.20574V34.8276H13.5819C18.2871 34.8276 22.1677 33.2425 25.3206 30.0244C28.4735 26.8064 30.0743 22.7717 30.0743 18.0167C30.0743 13.2616 28.4735 9.27498 25.3206 6.05689C22.1677 2.83881 18.2871 1.20574 13.5819 1.20574H0ZM7.7611 27.4308V8.60255H13.5819C16.2498 8.60255 18.4326 9.46711 20.0819 11.1962C21.7796 12.8773 22.6042 15.1828 22.6042 18.0167C22.6042 20.8505 21.7796 23.156 20.0819 24.8851C18.4326 26.5662 16.2498 27.4308 13.5819 27.4308H7.7611Z" fill="#202123"/>
<path d="M38.5611 10.812H31.2851V34.8276H38.5611V23.9725C38.5611 21.8111 39.3372 20.2741 40.8409 19.4096C42.3931 18.497 44.0424 18.2088 45.8371 18.497V10.3317C42.5387 10.3317 39.4827 12.0128 38.5611 15.0868V10.812Z" fill="#202123"/>
<path d="M62.8202 35.5C66.5552 35.5 69.6112 34.5874 71.9395 32.7622C74.2678 30.889 75.432 28.3914 75.432 25.1733C75.432 22.4355 74.3164 20.2261 73.1037 18.9292C72.5216 18.2568 71.6485 17.6324 70.4843 17.056C69.3687 16.4316 68.3985 15.9993 67.6709 15.7592L64.518 14.7505C62.0441 14.0301 60.3949 13.3576 59.5703 12.7332C58.7942 12.1088 58.4061 11.3884 58.4061 10.5718C58.4061 9.17892 59.7158 8.02617 62.0441 8.02617C65.003 8.02617 66.7008 9.37104 67.9134 11.9167L74.4619 8.12223C71.988 3.17502 67.6224 0.533307 62.0441 0.533307C58.9397 0.533307 56.2718 1.4459 53.992 3.31912C51.7606 5.19233 50.645 7.64192 50.645 10.7639C50.645 13.8379 51.7606 16.2395 53.7494 17.8245C55.8352 19.3615 57.7755 20.2261 60.6374 20.9946C63.3538 21.7151 65.1971 22.3875 66.1672 22.9639C67.1858 23.4922 67.6709 24.2607 67.6709 25.2694C67.6709 27.0945 66.1187 28.0071 63.0628 28.0071C59.6673 28.0071 57.2904 26.4701 55.9322 23.3481L49.2383 27.1906C51.1786 32.3299 55.8837 35.5 62.8202 35.5Z" fill="#202123"/>
<path d="M98.6164 31.8496C101.09 29.4 102.351 26.3741 102.351 22.8198C102.351 19.2655 101.09 16.2875 98.6164 13.8379C96.1426 11.3884 93.0866 10.1395 89.4971 10.1395C85.9076 10.1395 82.8517 11.3884 80.3778 13.8379C77.904 16.2875 76.6428 19.2655 76.6428 22.8198C76.6428 26.3741 77.904 29.4 80.3778 31.8496C82.8517 34.2992 85.9076 35.5 89.4971 35.5C93.0866 35.5 96.1426 34.2992 98.6164 31.8496ZM85.5196 26.9024C84.4524 25.8457 83.9188 24.5009 83.9188 22.8198C83.9188 21.1387 84.4524 19.7938 85.5196 18.7371C86.5867 17.6804 87.8964 17.1521 89.4971 17.1521C91.0979 17.1521 92.4075 17.6804 93.4747 18.7371C94.5418 19.7938 95.0754 21.1387 95.0754 22.8198C95.0754 24.5009 94.5418 25.8457 93.4747 26.9024C92.4075 27.9591 91.0979 28.4874 89.4971 28.4874C87.8964 28.4874 86.5867 27.9591 85.5196 26.9024Z" fill="#202123"/>
<path d="M117.381 0.533307C109.571 0.101026 105.594 3.89549 105.594 10.812H102.344V17.7285H105.594V34.8276H112.87V17.7285H117.381V10.812H112.87C112.87 8.31436 114.374 7.20964 117.381 7.44979V0.533307Z" fill="#202123"/>
<path d="M133.538 10.812H128.541V4.08761L121.265 6.24902V10.812H117.385V17.7285H121.265V26.23C121.265 29.7363 122.138 32.1378 123.933 33.5307C125.728 34.8756 128.929 35.3079 133.538 34.8276V28.2953C129.997 28.4874 128.541 28.1512 128.541 26.23V17.7285H133.538V10.812Z" fill="#202123"/>
<path d="M159.183 25.7016C159.377 24.789 159.474 23.8284 159.474 22.8198C159.474 19.2174 158.31 16.1915 155.933 13.7899C153.605 11.3403 150.694 10.1395 147.153 10.1395C143.37 10.1395 140.265 11.3403 137.84 13.7899C135.463 16.1915 134.25 19.2174 134.25 22.8198C134.25 26.4701 135.463 29.4961 137.888 31.8977C140.362 34.2992 143.612 35.5 147.687 35.5C152.343 35.5 155.884 33.8669 158.261 30.5528L152.441 27.2386C151.325 28.4394 149.773 29.0638 147.784 29.0638C144.728 29.0638 142.788 27.9591 141.963 25.7016H159.183ZM141.817 20.3221C142.545 17.7765 144.291 16.5277 147.105 16.5277C149.821 16.5277 151.519 17.7765 152.246 20.3221H141.817Z" fill="#202123"/>
<path d="M167.724 10.812H160.448V34.8276H167.724V23.9725C167.724 21.8111 168.5 20.2741 170.004 19.4096C171.556 18.497 173.205 18.2088 175 18.497V10.3317C171.702 10.3317 168.646 12.0128 167.724 15.0868V10.812Z" fill="#202123"/>
</svg>
