<svg width="1903" height="381" viewBox="0 0 1903 381" fill="none" xmlns="http://www.w3.org/2000/svg">
<g opacity="0.2">
<path d="M0 7.68252V373.68H147.694C198.859 373.68 241.057 356.426 275.343 321.395C309.63 286.363 327.036 242.444 327.036 190.681C327.036 138.919 309.63 95.5219 275.343 60.4907C241.057 25.4596 198.859 7.68252 147.694 7.68252H0ZM84.3965 293.161V88.202H147.694C176.705 88.202 200.442 97.6134 218.376 116.436C236.838 134.736 245.805 159.833 245.805 190.681C245.805 221.53 236.838 246.627 218.376 265.449C200.442 283.749 176.705 293.161 147.694 293.161H84.3965Z" fill="url(#paint0_linear_1584_2870)"/>
<path d="M419.324 112.253H340.203V373.68H419.324V255.515C419.324 231.987 427.764 215.255 444.116 205.844C460.995 195.91 478.929 192.773 498.446 195.91V107.025C462.577 107.025 429.346 125.325 419.324 158.787V112.253Z" fill="url(#paint1_linear_1584_2870)"/>
<path d="M683.125 381C723.741 381 756.972 371.066 782.291 351.197C807.61 330.806 820.269 303.618 820.269 268.586C820.269 238.784 808.137 214.733 794.95 200.615C788.621 193.296 779.126 186.498 766.467 180.224C754.335 173.427 743.785 168.721 735.873 166.107L701.587 155.127C674.685 147.284 656.751 139.964 647.784 133.167C639.344 126.37 635.125 118.527 635.125 109.639C635.125 94.4762 649.366 81.9277 674.685 81.9277C706.862 81.9277 725.323 96.5676 738.51 124.279L809.72 82.9734C782.818 29.1195 735.345 0.362572 674.685 0.362572C640.927 0.362572 611.916 10.2968 587.124 30.6881C562.86 51.0794 550.728 77.7449 550.728 111.73C550.728 145.193 562.86 171.336 584.487 188.59C607.168 205.321 628.267 214.733 659.389 223.098C688.927 230.941 708.971 238.261 719.521 244.535C730.598 250.287 735.873 258.652 735.873 269.632C735.873 289.501 718.993 299.435 685.762 299.435C648.839 299.435 622.993 282.704 608.223 248.718L535.431 290.546C556.53 346.492 607.696 381 683.125 381Z" fill="url(#paint2_linear_1584_2870)"/>
<path d="M1072.38 341.263C1099.28 314.598 1113 281.658 1113 242.967C1113 204.275 1099.28 171.859 1072.38 145.193C1045.48 118.527 1012.25 104.933 973.217 104.933C934.184 104.933 900.953 118.527 874.051 145.193C847.15 171.859 833.436 204.275 833.436 242.967C833.436 281.658 847.15 314.598 874.051 341.263C900.953 367.929 934.184 381 973.217 381C1012.25 381 1045.48 367.929 1072.38 341.263ZM929.964 287.409C918.36 275.906 912.557 261.267 912.557 242.967C912.557 224.667 918.36 210.027 929.964 198.524C941.569 187.021 955.811 181.27 973.217 181.27C990.624 181.27 1004.87 187.021 1016.47 198.524C1028.08 210.027 1033.88 224.667 1033.88 242.967C1033.88 261.267 1028.08 275.906 1016.47 287.409C1004.87 298.912 990.624 304.663 973.217 304.663C955.811 304.663 941.569 298.912 929.964 287.409Z" fill="url(#paint3_linear_1584_2870)"/>
<path d="M1276.43 0.362572C1191.51 -4.34311 1148.26 36.9623 1148.26 112.253H1112.92V187.544H1148.26V373.68H1227.38V187.544H1276.43V112.253H1227.38C1227.38 85.0648 1243.73 73.0392 1276.43 75.6535V0.362572Z" fill="url(#paint4_linear_1584_2870)"/>
<path d="M1452.13 112.253H1397.8V39.0537L1318.67 62.5822V112.253H1276.48V187.544H1318.67V280.089C1318.67 318.258 1328.17 344.4 1347.69 359.563C1367.2 374.203 1402.02 378.909 1452.13 373.68V302.572C1413.62 304.663 1397.8 301.003 1397.8 280.089V187.544H1452.13V112.253Z" fill="url(#paint5_linear_1584_2870)"/>
<path d="M1731 274.338C1733.11 264.404 1734.17 253.947 1734.17 242.967C1734.17 203.753 1721.51 170.813 1695.66 144.67C1670.34 118.005 1638.69 104.933 1600.19 104.933C1559.04 104.933 1525.28 118.005 1498.91 144.67C1473.06 170.813 1459.88 203.753 1459.88 242.967C1459.88 282.703 1473.06 315.643 1499.44 341.786C1526.34 367.929 1561.68 381 1605.99 381C1656.63 381 1695.13 363.223 1720.98 327.146L1657.68 291.069C1645.55 304.141 1628.67 310.938 1607.04 310.938C1573.81 310.938 1552.71 298.912 1543.75 274.338H1731ZM1542.16 215.778C1550.08 188.067 1569.07 174.473 1599.66 174.473C1629.2 174.473 1647.66 188.067 1655.57 215.778H1542.16Z" fill="url(#paint6_linear_1584_2870)"/>
<path d="M1823.88 112.253H1744.76V373.68H1823.88V255.515C1823.88 231.987 1832.32 215.255 1848.67 205.844C1865.55 195.91 1883.48 192.773 1903 195.91V107.025C1867.13 107.025 1833.9 125.325 1823.88 158.787V112.253Z" fill="url(#paint7_linear_1584_2870)"/>
</g>
<defs>
<linearGradient id="paint0_linear_1584_2870" x1="1146.5" y1="582" x2="1146.5" y2="-90" gradientUnits="userSpaceOnUse">
<stop stop-color="#E1E5FF" stop-opacity="0.91"/>
<stop offset="1" stop-color="#96A3F1" stop-opacity="0"/>
</linearGradient>
<linearGradient id="paint1_linear_1584_2870" x1="1146.5" y1="582" x2="1146.5" y2="-90" gradientUnits="userSpaceOnUse">
<stop stop-color="#E1E5FF" stop-opacity="0.91"/>
<stop offset="1" stop-color="#96A3F1" stop-opacity="0"/>
</linearGradient>
<linearGradient id="paint2_linear_1584_2870" x1="1146.5" y1="582" x2="1146.5" y2="-90" gradientUnits="userSpaceOnUse">
<stop stop-color="#E1E5FF" stop-opacity="0.91"/>
<stop offset="1" stop-color="#96A3F1" stop-opacity="0"/>
</linearGradient>
<linearGradient id="paint3_linear_1584_2870" x1="1146.5" y1="582" x2="1146.5" y2="-90" gradientUnits="userSpaceOnUse">
<stop stop-color="#E1E5FF" stop-opacity="0.91"/>
<stop offset="1" stop-color="#96A3F1" stop-opacity="0"/>
</linearGradient>
<linearGradient id="paint4_linear_1584_2870" x1="1146.5" y1="582" x2="1146.5" y2="-90" gradientUnits="userSpaceOnUse">
<stop stop-color="#E1E5FF" stop-opacity="0.91"/>
<stop offset="1" stop-color="#96A3F1" stop-opacity="0"/>
</linearGradient>
<linearGradient id="paint5_linear_1584_2870" x1="1146.5" y1="582" x2="1146.5" y2="-90" gradientUnits="userSpaceOnUse">
<stop stop-color="#E1E5FF" stop-opacity="0.91"/>
<stop offset="1" stop-color="#96A3F1" stop-opacity="0"/>
</linearGradient>
<linearGradient id="paint6_linear_1584_2870" x1="1146.5" y1="582" x2="1146.5" y2="-90" gradientUnits="userSpaceOnUse">
<stop stop-color="#E1E5FF" stop-opacity="0.91"/>
<stop offset="1" stop-color="#96A3F1" stop-opacity="0"/>
</linearGradient>
<linearGradient id="paint7_linear_1584_2870" x1="1146.5" y1="582" x2="1146.5" y2="-90" gradientUnits="userSpaceOnUse">
<stop stop-color="#E1E5FF" stop-opacity="0.91"/>
<stop offset="1" stop-color="#96A3F1" stop-opacity="0"/>
</linearGradient>
</defs>
</svg>
