<svg width="1440" height="306" viewBox="0 0 1440 306" fill="none" xmlns="http://www.w3.org/2000/svg">
<g opacity="0.2">
<path d="M-66 6.17021V300.121H59.0314C102.346 300.121 138.069 286.263 167.094 258.128C196.119 229.993 210.855 194.719 210.855 153.146C210.855 111.573 196.119 76.7184 167.094 48.5831C138.069 20.4478 102.346 6.17021 59.0314 6.17021H-66ZM5.44651 235.452V70.8394H59.0314C83.5911 70.8394 103.685 78.3981 118.868 93.5156C134.497 108.213 142.088 128.37 142.088 153.146C142.088 177.921 134.497 198.078 118.868 213.196C103.685 227.893 83.5911 235.452 59.0314 235.452H5.44651Z" fill="url(#paint0_linear_0_161)"/>
<path d="M288.982 90.1562H222.001V300.121H288.982V205.217C288.982 186.32 296.127 172.882 309.97 165.324C324.259 157.345 339.441 154.825 355.963 157.345V85.9568C325.599 85.9568 297.467 100.654 288.982 127.53V90.1562Z" fill="url(#paint1_linear_0_161)"/>
<path d="M512.305 306C546.689 306 574.821 298.021 596.255 282.064C617.689 265.687 628.406 243.85 628.406 215.715C628.406 191.779 618.135 172.462 606.972 161.124C601.613 155.245 593.575 149.786 582.858 144.747C572.588 139.288 563.657 135.509 556.959 133.409L527.934 124.59C505.16 118.291 489.978 112.412 482.387 106.953C475.242 101.494 471.67 95.1953 471.67 88.0565C471.67 75.8785 483.726 65.8002 505.16 65.8002C532.399 65.8002 548.028 77.5582 559.192 99.8145L619.475 66.6401C596.701 23.3873 556.513 0.291199 505.16 0.291199C476.582 0.291199 452.022 8.26986 431.035 24.6471C410.494 41.0244 400.223 62.4408 400.223 89.7362C400.223 116.612 410.494 137.608 428.802 151.466C448.003 164.904 465.865 172.462 492.211 179.181C517.217 185.48 534.186 191.359 543.116 196.398C552.494 201.018 556.959 207.736 556.959 216.555C556.959 232.512 542.67 240.491 514.538 240.491C483.28 240.491 461.399 227.053 448.896 199.758L387.274 233.352C405.135 278.285 448.45 306 512.305 306Z" fill="url(#paint2_linear_0_161)"/>
<path d="M841.835 274.085C864.608 252.669 876.218 226.213 876.218 195.139C876.218 164.064 864.608 138.028 841.835 116.612C819.061 95.1953 790.929 84.2771 757.885 84.2771C724.841 84.2771 696.709 95.1953 673.935 116.612C651.162 138.028 639.552 164.064 639.552 195.139C639.552 226.213 651.162 252.669 673.935 274.085C696.709 295.502 724.841 306 757.885 306C790.929 306 819.061 295.502 841.835 274.085ZM721.269 230.833C711.445 221.594 706.533 209.836 706.533 195.139C706.533 180.441 711.445 168.683 721.269 159.445C731.093 150.206 743.149 145.587 757.885 145.587C772.621 145.587 784.677 150.206 794.501 159.445C804.325 168.683 809.237 180.441 809.237 195.139C809.237 209.836 804.325 221.594 794.501 230.833C784.677 240.071 772.621 244.69 757.885 244.69C743.149 244.69 731.093 240.071 721.269 230.833Z" fill="url(#paint3_linear_0_161)"/>
<path d="M1014.58 0.291199C942.683 -3.48817 906.067 29.6863 906.067 90.1562H876.148V150.626H906.067V300.121H973.048V150.626H1014.58V90.1562H973.048C973.048 68.3198 986.891 58.6614 1014.58 60.7611V0.291199Z" fill="url(#paint4_linear_0_161)"/>
<path d="M1163.31 90.1562H1117.32V31.366L1050.33 50.2628V90.1562H1014.61V150.626H1050.33V224.954C1050.33 255.608 1058.37 276.605 1074.89 288.783C1091.42 300.541 1120.89 304.32 1163.31 300.121V243.011C1130.71 244.69 1117.32 241.751 1117.32 224.954V150.626H1163.31V90.1562Z" fill="url(#paint5_linear_0_161)"/>
<path d="M1399.39 220.334C1401.18 212.356 1402.07 203.957 1402.07 195.139C1402.07 163.644 1391.36 137.188 1369.47 116.192C1348.04 94.7754 1321.25 84.2771 1288.65 84.2771C1253.82 84.2771 1225.24 94.7754 1202.92 116.192C1181.03 137.188 1169.87 163.644 1169.87 195.139C1169.87 227.053 1181.03 253.509 1203.36 274.505C1226.14 295.502 1256.05 306 1293.56 306C1336.43 306 1369.03 291.722 1390.91 262.747L1337.32 233.772C1327.05 244.27 1312.76 249.729 1294.46 249.729C1266.32 249.729 1248.46 240.071 1240.87 220.334H1399.39ZM1239.53 173.302C1246.23 151.046 1262.3 140.128 1288.2 140.128C1313.21 140.128 1328.84 151.046 1335.54 173.302H1239.53Z" fill="url(#paint6_linear_0_161)"/>
<path d="M1478.02 90.1562H1411.04V300.121H1478.02V205.217C1478.02 186.32 1485.16 172.882 1499.01 165.324C1513.3 157.345 1528.48 154.825 1545 157.345V85.9568C1514.64 85.9568 1486.5 100.654 1478.02 127.53V90.1562Z" fill="url(#paint7_linear_0_161)"/>
</g>
<defs>
<linearGradient id="paint0_linear_0_161" x1="1604" y1="-188.716" x2="-142.129" y2="348.856" gradientUnits="userSpaceOnUse">
<stop stop-color="#3950D8" stop-opacity="0.91"/>
<stop offset="1" stop-color="#96A3F1" stop-opacity="0"/>
</linearGradient>
<linearGradient id="paint1_linear_0_161" x1="1604" y1="-188.716" x2="-142.129" y2="348.856" gradientUnits="userSpaceOnUse">
<stop stop-color="#3950D8" stop-opacity="0.91"/>
<stop offset="1" stop-color="#96A3F1" stop-opacity="0"/>
</linearGradient>
<linearGradient id="paint2_linear_0_161" x1="1604" y1="-188.716" x2="-142.129" y2="348.856" gradientUnits="userSpaceOnUse">
<stop stop-color="#3950D8" stop-opacity="0.91"/>
<stop offset="1" stop-color="#96A3F1" stop-opacity="0"/>
</linearGradient>
<linearGradient id="paint3_linear_0_161" x1="1604" y1="-188.716" x2="-142.129" y2="348.856" gradientUnits="userSpaceOnUse">
<stop stop-color="#3950D8" stop-opacity="0.91"/>
<stop offset="1" stop-color="#96A3F1" stop-opacity="0"/>
</linearGradient>
<linearGradient id="paint4_linear_0_161" x1="1604" y1="-188.716" x2="-142.129" y2="348.856" gradientUnits="userSpaceOnUse">
<stop stop-color="#3950D8" stop-opacity="0.91"/>
<stop offset="1" stop-color="#96A3F1" stop-opacity="0"/>
</linearGradient>
<linearGradient id="paint5_linear_0_161" x1="1604" y1="-188.716" x2="-142.129" y2="348.856" gradientUnits="userSpaceOnUse">
<stop stop-color="#3950D8" stop-opacity="0.91"/>
<stop offset="1" stop-color="#96A3F1" stop-opacity="0"/>
</linearGradient>
<linearGradient id="paint6_linear_0_161" x1="1604" y1="-188.716" x2="-142.129" y2="348.856" gradientUnits="userSpaceOnUse">
<stop stop-color="#3950D8" stop-opacity="0.91"/>
<stop offset="1" stop-color="#96A3F1" stop-opacity="0"/>
</linearGradient>
<linearGradient id="paint7_linear_0_161" x1="1604" y1="-188.716" x2="-142.129" y2="348.856" gradientUnits="userSpaceOnUse">
<stop stop-color="#3950D8" stop-opacity="0.91"/>
<stop offset="1" stop-color="#96A3F1" stop-opacity="0"/>
</linearGradient>
</defs>
</svg>
