<svg width="50" height="50" viewBox="0 0 50 50" fill="none" xmlns="http://www.w3.org/2000/svg">
<rect width="50" height="50" rx="25" fill="#FFF200"/>
<g clip-path="url(#clip0_402_2230)">
<mask id="mask0_402_2230" style="mask-type:luminance" maskUnits="userSpaceOnUse" x="-164" y="-31" width="380" height="380">
<path d="M-163.09 348.658H215.657V-30.089H-163.09V348.658Z" fill="white"/>
</mask>
<g mask="url(#mask0_402_2230)">
<path d="M25.7559 31.9129C24.9828 31.8614 24.0914 31.7258 23.3884 31.5222C23.2567 31.4841 22.7114 31.2836 22.5727 31.22C20.125 30.0862 18.4199 27.6112 18.4199 24.7398C18.4199 20.8014 21.624 17.5934 25.565 17.5934C29.471 17.5934 32.6535 20.7466 32.7082 24.6405H35.2895C35.2348 19.324 30.8949 15.0153 25.565 15.0153C20.2033 15.0153 15.8392 19.3768 15.8392 24.7398C15.8392 28.437 17.9185 31.6527 20.963 33.2955C21.5127 33.5862 22.3017 33.8859 22.5695 33.968C23.4374 34.2263 24.5025 34.3981 25.4505 34.47C25.7724 34.4942 26.8967 34.5069 27.2243 34.5082H45V31.9371H27.2543C27.0182 31.9371 25.9868 31.9282 25.7559 31.9129ZM27.2543 27.8759C27.0666 27.8759 26.0848 27.8695 25.9035 27.8542C25.5962 27.8281 25.1508 27.7823 24.8645 27.7168C24.5413 27.6303 24.2378 27.5157 24.101 27.4407C23.1421 26.9221 22.4887 25.9079 22.4887 24.7398C22.4887 23.0403 23.8649 21.6622 25.565 21.6622C27.2294 21.6622 28.5827 22.9863 28.6368 24.6405H31.1169C31.0648 21.6183 28.6012 19.1827 25.565 19.1827C22.4951 19.1827 20.0067 21.6705 20.0067 24.7398C20.0067 26.9043 21.2474 28.7736 23.0543 29.6892C23.3324 29.8521 23.8554 30.0226 24.0043 30.0614C24.5145 30.1957 25.1998 30.2873 25.7559 30.328C25.9614 30.3452 26.9679 30.3528 27.1804 30.3541V30.3579H44.9994V27.8759H27.2543ZM14.2486 34.4986H11.6501V17.5991H7.85296V15H14.2486V34.4986ZM5 18.8977V21.3969H7.85296V34.4986H10.3496V18.8977H5Z" fill="#D91920"/>
<path d="M40.4084 15.1815C39.4725 15.1815 38.6963 15.9278 38.6963 16.8644C38.6963 17.801 39.4725 18.5772 40.4084 18.5772C41.373 18.5772 42.1193 17.801 42.1193 16.8644C42.1193 15.9278 41.373 15.1815 40.4084 15.1815ZM40.4084 18.3011C39.6354 18.3011 38.9692 17.6935 38.9692 16.8644C38.9692 16.0774 39.6354 15.4545 40.4084 15.4545C41.1809 15.4545 41.8438 16.0774 41.8438 16.8644C41.8438 17.6935 41.1809 18.3011 40.4084 18.3011Z" fill="#D91920"/>
<path d="M41.0606 17.3255C41.0606 17.1366 41.0326 16.961 40.8163 16.8916C41.0874 16.7974 41.1141 16.6199 41.1141 16.5124C41.1141 16.0778 40.7196 16.0225 40.5574 16.0225H39.811V17.7054H40.1222V17.015H40.3671C40.7196 17.015 40.7489 17.1773 40.7489 17.3255C40.7489 17.6125 40.7489 17.6666 40.8163 17.7054H41.1281C41.0606 17.6373 41.0874 17.5845 41.0606 17.3255ZM40.4893 16.7695H40.1222V16.2395H40.4365C40.6541 16.2395 40.8017 16.3082 40.8017 16.5124C40.8017 16.6199 40.7489 16.7695 40.4893 16.7695Z" fill="#D91920"/>
</g>
</g>
<defs>
<clipPath id="clip0_402_2230">
<rect width="40" height="19.5082" fill="white" transform="translate(5 15)"/>
</clipPath>
</defs>
</svg>
