<svg width="50" height="50" viewBox="0 0 50 50" fill="none" xmlns="http://www.w3.org/2000/svg">
<rect width="50" height="50" rx="25" fill="#F7F4F4"/>
<g clip-path="url(#clip0_402_2230)">
<path d="M11.6921 10.45C10.8999 10.661 10.2812 11.2938 10.0702 12.0953C10.0093 12.3297 9.99992 13.9516 9.99992 25C9.99992 38.9219 9.97648 37.8766 10.2859 38.4578C10.464 38.786 10.8765 39.1938 11.2093 39.3625C11.7624 39.6438 10.7968 39.625 24.9999 39.625C39.3343 39.625 38.2515 39.6485 38.8327 39.3391C39.1609 39.161 39.5687 38.7485 39.7374 38.4156C40.0187 37.8625 39.9999 38.7953 39.9999 25C39.9999 11.2047 40.0187 12.1375 39.7374 11.5844C39.5687 11.2516 39.1609 10.8391 38.8327 10.661C38.2515 10.3516 39.339 10.375 24.9765 10.3797C13.7499 10.3797 11.9124 10.3891 11.6921 10.45ZM26.1484 16.5156C28.5109 16.6844 30.0952 17.1813 31.2484 18.1047C31.8905 18.625 32.4015 19.4219 32.6452 20.2891C32.753 20.6641 32.753 20.6735 32.7671 24.8031C32.7812 28.4125 32.7765 29.0031 32.7109 29.3735C32.364 31.3985 31.0327 32.6453 28.6515 33.175C27.4374 33.4422 27.2546 33.4516 22.2015 33.4703L17.5468 33.4938V24.9813V16.4688H21.5218C23.7202 16.4688 25.7827 16.4922 26.1484 16.5156Z" fill="#FF4641"/>
<path d="M21.5875 24.9625L21.6016 30.5547L23.3125 30.5687C25.8812 30.5875 26.6969 30.5125 27.4234 30.1797C28.0141 29.9078 28.3891 29.4531 28.5906 28.7734C28.6656 28.5203 28.675 28.1781 28.6937 25.1406C28.7031 22.7359 28.6937 21.7094 28.6562 21.5078C28.4219 20.2844 27.3203 19.5953 25.3516 19.4266C25.0422 19.3984 24.0672 19.375 23.1812 19.375H21.5781L21.5875 24.9625Z" fill="#FF4641"/>
</g>
<defs>
<clipPath id="clip0_402_2230">
<rect width="30" height="30" fill="white" transform="translate(10 10)"/>
</clipPath>
</defs>
</svg>
