<svg width="50" height="50" viewBox="0 0 50 50" fill="none" xmlns="http://www.w3.org/2000/svg">
<rect width="50" height="50" rx="25" fill="#E4F8FD"/>
<path d="M5.31966 21.8613C5.2593 21.8613 5.19895 21.801 5.2593 21.7406L5.6818 21.1371C5.74216 21.0767 5.80251 21.0163 5.92323 21.0163H13.5282C13.5885 21.0163 13.6489 21.0767 13.5885 21.1371L13.2264 21.6803C13.166 21.7406 13.1057 21.801 12.985 21.801L5.31966 21.8613ZM2.12076 23.7928C2.0604 23.7928 2.00004 23.7324 2.0604 23.672L2.4829 23.0685C2.54325 23.0081 2.60361 22.9478 2.72432 22.9478H12.4417C12.5021 22.9478 12.5625 23.0081 12.5625 23.0685L12.3814 23.672C12.3814 23.7324 12.2607 23.7928 12.2003 23.7928H2.12076ZM7.25107 25.7845C7.19072 25.7845 7.13036 25.7242 7.19072 25.6638L7.4925 25.1206C7.55286 25.0602 7.61321 24.9999 7.73393 24.9999H11.9589C12.0192 24.9999 12.0796 25.0602 12.0796 25.1206L12.0193 25.6035C12.0193 25.6638 11.9589 25.7242 11.8985 25.7242L7.25107 25.7845ZM29.3416 21.4388L25.7806 22.3442C25.4788 22.4046 25.4184 22.4649 25.177 22.1028C24.8752 21.7406 24.6338 21.4992 24.1509 21.3181C22.8231 20.6542 21.4952 20.8353 20.2881 21.6199C18.8396 22.5253 18.1153 23.9135 18.1153 25.6638C18.1153 27.3538 19.3224 28.742 21.0124 28.9834C22.461 29.1645 23.6681 28.6816 24.6338 27.5952C24.8149 27.3538 24.9959 27.1124 25.2374 26.8106H21.1331C20.7106 26.8106 20.5899 26.5088 20.7106 26.1467C21.0124 25.4827 21.4952 24.3963 21.797 23.8531C21.8574 23.7324 22.0385 23.491 22.3402 23.491H30.0659C30.0055 24.0945 30.0055 24.6377 29.9452 25.2413C29.7038 26.7502 29.1605 28.1988 28.1948 29.4059C26.6859 31.3977 24.6941 32.6652 22.1592 33.0273C20.0467 33.3291 18.1153 32.9066 16.4253 31.6391C14.856 30.432 13.9507 28.8627 13.7092 26.9313C13.4075 24.6377 14.1317 22.5253 15.5199 20.7146C17.0289 18.7228 19.0206 17.4553 21.4952 17.0328C23.487 16.6707 25.4184 16.9121 27.1084 18.0589C28.2552 18.7832 29.0398 19.8092 29.583 21.0767C29.6434 21.3181 29.583 21.3785 29.3416 21.4388Z" fill="#00ACD7"/>
<path d="M36.343 33.2084C34.4116 33.148 32.6612 32.6048 31.1523 31.3373C29.8848 30.2509 29.1002 28.8627 28.8588 27.2331C28.4966 24.8188 29.1605 22.7063 30.6091 20.8353C32.1784 18.7832 34.0494 17.7571 36.5844 17.2742C38.7572 16.9121 40.8094 17.0932 42.6201 18.3607C44.3101 19.5074 45.3361 21.0767 45.6379 23.1288C46 26.026 45.155 28.3195 43.2236 30.3113C41.8354 31.7598 40.0851 32.6048 38.1537 33.0273C37.4898 33.148 36.8862 33.148 36.343 33.2084ZM41.4129 24.6377C41.4129 24.336 41.4129 24.1549 41.3526 23.9135C40.9904 21.801 39.059 20.5939 37.0069 21.0767C35.0151 21.4992 33.7476 22.7667 33.2648 24.7585C32.9026 26.3881 33.6873 28.0781 35.1962 28.8024C36.343 29.2852 37.5501 29.2249 38.6365 28.6816C40.3869 27.8367 41.2922 26.4484 41.4129 24.6377Z" fill="#00ACD7"/>
</svg>
