<svg width="50" height="50" viewBox="0 0 50 50" fill="none" xmlns="http://www.w3.org/2000/svg">
<rect width="50" height="50" rx="25" fill="#E4FAF1"/>
<g clip-path="url(#clip0_402_2230)">
<path d="M4.96553 24.936L5.75459 25.9266L4.86475 25.036L4.96553 24.936Z" fill="#75CACA"/>
<path d="M5.09814 24.8024L6.93096 27.1024L5.75439 25.9266L4.96533 24.936L5.09814 24.8024Z" fill="#74CBCA"/>
<path d="M5.23096 24.6696L8.10674 28.2781L6.93096 27.1024L5.09814 24.8024L5.23096 24.6696Z" fill="#74CBCA"/>
<path d="M5.36377 24.5367L9.28252 29.4539L8.10674 28.2782L5.23096 24.6696L5.36377 24.5367Z" fill="#73CBCA"/>
<path d="M5.49658 24.4039L10.4591 30.6305L9.28252 29.4539L5.36377 24.5367L5.49658 24.4039Z" fill="#73CBCA"/>
<path d="M5.62939 24.2711L11.6349 31.8063L10.4591 30.6305L5.49658 24.4039L5.62939 24.2711ZM5.76221 24.1383L12.8106 32.9821L11.6349 31.8063L5.62939 24.2711L5.76221 24.1383Z" fill="#72C9C9"/>
<path d="M5.89502 24.0055L13.9864 34.1586L12.8106 32.9821L5.76221 24.1383L5.89502 24.0055Z" fill="#70CACA"/>
<path d="M6.02783 23.8727L15.163 35.3344L13.9864 34.1586L5.89502 24.0055L6.02783 23.8727Z" fill="#70CACA"/>
<path d="M6.16143 23.7399L16.238 36.3836L16.2231 36.3946L15.163 35.3344L6.02783 23.8727L6.16143 23.7399Z" fill="#6FCAC8"/>
<path d="M6.29443 23.6071L16.3765 36.2586L16.3062 36.3289L16.2382 36.3836L6.16162 23.7399L6.29443 23.6071Z" fill="#6EC8C8"/>
<path d="M6.42725 23.4742L16.5101 36.125L16.3765 36.2586L6.29443 23.6071L6.42725 23.4742Z" fill="#6EC8C8"/>
<path d="M6.56006 23.3406L16.6429 35.9922L16.5101 36.125L6.42725 23.4742L6.56006 23.3406Z" fill="#6CC9C9"/>
<path d="M6.69287 23.2078L16.7757 35.8594L16.6429 35.9922L6.56006 23.3406L6.69287 23.2078Z" fill="#6DC9C8"/>
<path d="M6.82568 23.075L16.9085 35.7266L16.7757 35.8594L6.69287 23.2078L6.82568 23.075Z" fill="#69C7C8"/>
<path d="M6.9585 22.9422L17.0413 35.5938L16.9085 35.7266L6.82568 23.075L6.9585 22.9422Z" fill="#69C7C8"/>
<path d="M7.09131 22.8094L17.1741 35.4609L17.0413 35.5938L6.9585 22.9422L7.09131 22.8094Z" fill="#69C8C7"/>
<path d="M7.22412 22.6766L17.3069 35.3281L17.1741 35.4609L7.09131 22.8094L7.22412 22.6766Z" fill="#68C8C7"/>
<path d="M7.35693 22.5438L17.4397 35.1953L17.3069 35.3281L7.22412 22.6766L7.35693 22.5438Z" fill="#67C7C7"/>
<path d="M7.48975 22.4109L17.5726 35.0625L17.4397 35.1953L7.35693 22.5438L7.48975 22.4109Z" fill="#65C7C7"/>
<path d="M7.62334 22.2781L17.7054 34.9297L17.5726 35.0625L7.48975 22.4109L7.62334 22.2781Z" fill="#64C7C7"/>
<path d="M7.75635 22.1453L17.8384 34.7969L17.7056 34.9297L7.62354 22.2781L7.75635 22.1453Z" fill="#63C6C6"/>
<path d="M7.88916 22.0125L17.972 34.6633L17.8384 34.7969L7.75635 22.1453L7.88916 22.0125Z" fill="#60C6C6"/>
<path d="M8.02197 21.8797L18.1048 34.5305L17.972 34.6633L7.88916 22.0125L8.02197 21.8797Z" fill="#60C6C5"/>
<path d="M8.15479 21.7461L18.2376 34.3977L18.1048 34.5305L8.02197 21.8797L8.15479 21.7461Z" fill="#5FC6C5"/>
<path d="M8.2876 21.6133L18.3704 34.2648L18.2376 34.3977L8.15479 21.7461L8.2876 21.6133Z" fill="#5CC5C4"/>
<path d="M8.42041 21.4805L18.5032 34.132L18.3704 34.2648L8.2876 21.6133L8.42041 21.4805Z" fill="#5AC5C4"/>
<path d="M8.55322 21.3477L18.636 33.9992L18.5032 34.132L8.42041 21.4805L8.55322 21.3477Z" fill="#5AC5C4"/>
<path d="M8.68604 21.2148L18.7688 33.8664L18.636 33.9992L8.55322 21.3477L8.68604 21.2148Z" fill="#57C4C4"/>
<path d="M8.81885 21.082L18.9017 33.7336L18.7688 33.8664L8.68604 21.2148L8.81885 21.082Z" fill="#58C4C3"/>
<path d="M8.95166 20.9492L19.0345 33.6008L18.9017 33.7336L8.81885 21.082L8.95166 20.9492Z" fill="#55C4C3"/>
<path d="M9.08447 20.8164L19.1673 33.468L19.0345 33.6008L8.95166 20.9492L9.08447 20.8164Z" fill="#53C3C2"/>
<path d="M9.21807 20.6836L19.3001 33.3352L19.1673 33.468L9.08447 20.8164L9.21807 20.6836Z" fill="#52C3C2"/>
<path d="M9.35059 20.5508L19.4334 33.2023L19.2998 33.3352L9.21777 20.6836L9.35059 20.5508Z" fill="#50C3C2"/>
<path d="M9.4834 20.418L19.5662 33.0687L19.4326 33.2023L9.35059 20.5508L9.4834 20.418Z" fill="#50C1C0"/>
<path d="M9.61621 20.2844L19.699 32.936L19.5662 33.0688L9.4834 20.418L9.61621 20.2844Z" fill="#4BC2C0"/>
<path d="M9.74902 20.1516L19.8318 32.8032L19.699 32.936L9.61621 20.2844L9.74902 20.1516Z" fill="#4CC1C0"/>
<path d="M9.88184 20.0188L19.9646 32.6704L19.8318 32.8032L9.74902 20.1516L9.88184 20.0188Z" fill="#47C1BE"/>
<path d="M10.0146 19.886L20.0975 32.5375L19.9646 32.6704L9.88184 20.0188L10.0146 19.886Z" fill="#46C0BE"/>
<path d="M10.1475 19.7532L20.2303 32.4047L20.0975 32.5375L10.0146 19.886L10.1475 19.7532Z" fill="#43C0BE"/>
<path d="M10.2803 19.6204L20.3631 32.2719L20.2303 32.4047L10.1475 19.7532L10.2803 19.6204Z" fill="#40BFBD"/>
<path d="M10.4131 19.4875L20.4959 32.1391L20.3631 32.2719L10.2803 19.6204L10.4131 19.4875Z" fill="#3BBFBD"/>
<path d="M10.5459 19.3547L20.6287 32.0063L20.4959 32.1391L10.4131 19.4875L10.5459 19.3547Z" fill="#39BFBC"/>
<path d="M10.6795 19.2219L20.7615 31.8735L20.6287 32.0063L10.5459 19.3547L10.6795 19.2219Z" fill="#34BEBD"/>
<path d="M10.8125 19.0891L20.8945 31.7407L20.7617 31.8735L10.6797 19.2219L10.8125 19.0891Z" fill="#32BEBB"/>
<path d="M10.9453 18.9563L21.0281 31.6071L20.8945 31.7407L10.8125 19.0891L10.9453 18.9563Z" fill="#2DBDBB"/>
<path d="M11.0781 18.8235L21.1609 31.4743L21.0281 31.6071L10.9453 18.9563L11.0781 18.8235Z" fill="#24BCBB"/>
<path d="M11.2109 18.6899L21.2938 31.3414L21.1609 31.4743L11.0781 18.8235L11.2109 18.6899Z" fill="#21BCB9"/>
<path d="M11.3438 18.5571L21.4266 31.2086L21.2938 31.3414L11.2109 18.6899L11.3438 18.5571Z" fill="#18BBB9"/>
<path d="M11.4766 18.4243L21.5594 31.0758L21.4266 31.2086L11.3438 18.5571L11.4766 18.4243Z" fill="#0FBAB9"/>
<path d="M11.6094 18.2914L21.6922 30.943L21.5594 31.0758L11.4766 18.4243L11.6094 18.2914Z" fill="#03BBB8"/>
<path d="M11.7422 18.1586L21.825 30.8102L21.6922 30.943L11.6094 18.2914L11.7422 18.1586Z" fill="#06B8B6"/>
<path d="M11.875 18.0258L21.9578 30.6774L21.825 30.8102L11.7422 18.1586L11.875 18.0258Z" fill="#06B8B6"/>
<path d="M12.0078 17.893L22.0906 30.5446L21.9578 30.6774L11.875 18.0258L12.0078 17.893Z" fill="#03B7B5"/>
<path d="M12.1406 17.7602L22.2234 30.4118L22.0906 30.5446L12.0078 17.893L12.1406 17.7602Z" fill="#04B7B4"/>
<path d="M12.2742 17.6274L22.3563 30.2789L22.2234 30.4118L12.1406 17.7602L12.2742 17.6274Z" fill="#00B6B5"/>
<path d="M12.4067 17.4946L22.4896 30.1461L22.356 30.2789L12.2739 17.6274L12.4067 17.4946Z" fill="#03B6B4"/>
<path d="M12.5396 17.3618L22.6224 30.0125L22.4896 30.1461L12.4067 17.4946L12.5396 17.3618Z" fill="#05B6B2"/>
<path d="M12.6724 17.2289L22.7552 29.8797L22.6224 30.0125L12.5396 17.3618L12.6724 17.2289Z" fill="#01B5B1"/>
<path d="M12.8052 17.0953L22.888 29.7469L22.7552 29.8797L12.6724 17.2289L12.8052 17.0953Z" fill="#01B5B1"/>
<path d="M12.938 16.9625L23.0208 29.6141L22.888 29.7469L12.8052 17.0953L12.938 16.9625Z" fill="#00B4B1"/>
<path d="M13.0708 16.8297L23.1536 29.4813L23.0208 29.6141L12.938 16.9625L13.0708 16.8297Z" fill="#00B3B0"/>
<path d="M13.2036 16.6969L23.2864 29.3485L23.1536 29.4813L13.0708 16.8297L13.2036 16.6969Z" fill="#00B3B0"/>
<path d="M13.3364 16.5641L23.4192 29.2156L23.2864 29.3485L13.2036 16.6969L13.3364 16.5641Z" fill="#00B2AF"/>
<path d="M13.4692 16.4313L23.5521 29.0828L23.4192 29.2156L13.3364 16.5641L13.4692 16.4313Z" fill="#00B2AE"/>
<path d="M13.6021 16.2985L23.6849 28.95L23.5521 29.0828L13.4692 16.4313L13.6021 16.2985Z" fill="#00B1AE"/>
<path d="M13.7356 16.1656L23.8185 28.8172L23.6849 28.95L13.6021 16.2985L13.7356 16.1656Z" fill="#00B1AD"/>
<path d="M13.8687 16.032L23.9515 28.6844L23.8187 28.8172L13.7358 16.1656L13.8687 16.032Z" fill="#00B0AC"/>
<path d="M14.0015 15.9L24.0843 28.5508L23.9515 28.6844L13.8687 16.0328L14.0015 15.9Z" fill="#00AFAC"/>
<path d="M16.1577 13.7438L16.2405 13.6774L27.5991 25.036L24.0843 28.5508L14.0015 15.9L16.1577 13.7438Z" fill="#00AFAC"/>
<path d="M42.917 26.8883L44.774 24.85L44.8646 24.9407L42.917 26.8883Z" fill="#75CACA"/>
<path d="M40.8711 28.9352L44.6789 24.7547L44.7742 24.85L42.9172 26.8883L40.8711 28.9352Z" fill="#74CBCA"/>
<path d="M38.8242 30.9813L44.5836 24.6594L44.6789 24.7547L40.8711 28.9352L38.8242 30.9813Z" fill="#74CBCA"/>
<path d="M38.1313 31.5422L44.4884 24.5641L44.5837 24.6594L38.8243 30.9813L38.197 31.6086L38.1313 31.5422Z" fill="#73CBCA"/>
<path d="M38.0357 31.4469L44.3928 24.4688L44.4881 24.5641L38.1311 31.5422L38.0357 31.4469ZM37.9404 31.3516L44.2975 24.3735L44.3928 24.4688L38.0357 31.4469L37.9404 31.3516Z" fill="#72C9C9"/>
<path d="M37.8452 31.2563L44.2022 24.2781L44.2976 24.3734L37.9405 31.3516L37.8452 31.2563Z" fill="#70CACA"/>
<path d="M37.75 31.161L44.107 24.1829L44.2023 24.2782L37.8453 31.2563L37.75 31.161Z" fill="#6FCAC8"/>
<path d="M37.6548 31.0656L44.0118 24.0875L44.1071 24.1828L37.7501 31.161L37.6548 31.0656Z" fill="#6EC8C8"/>
<path d="M37.5591 30.9703L43.9161 23.9922L44.0114 24.0875L37.6544 31.0656L37.5591 30.9703Z" fill="#6EC8C8"/>
<path d="M37.4639 30.875L43.8209 23.8969L43.9162 23.9922L37.5592 30.9703L37.4639 30.875Z" fill="#6CC9C9"/>
<path d="M37.3687 30.7797L43.7257 23.8016L43.821 23.8969L37.464 30.875L37.3687 30.7797Z" fill="#6DC9C8"/>
<path d="M37.2734 30.6844L43.6305 23.7063L43.7258 23.8016L37.3687 30.7797L37.2734 30.6844Z" fill="#69C7C8"/>
<path d="M37.1782 30.5891L43.5353 23.611L43.6306 23.7063L37.2735 30.6844L37.1782 30.5891Z" fill="#69C7C8"/>
<path d="M37.0825 30.4937L43.4395 23.5156L43.5349 23.6109L37.1778 30.5891L37.0825 30.4937Z" fill="#69C8C7"/>
<path d="M36.9873 30.3985L43.3443 23.4203L43.4396 23.5157L37.0826 30.4938L36.9873 30.3985Z" fill="#68C8C7"/>
<path d="M36.8921 30.3039L43.2491 23.325L43.3444 23.4203L36.9874 30.3984L36.8921 30.3039Z" fill="#67C7C7"/>
<path d="M36.7969 30.2079L43.1539 23.2297L43.2492 23.325L36.8922 30.304L36.7969 30.2079Z" fill="#65C7C7"/>
<path d="M36.7017 30.1125L43.0587 23.1344L43.154 23.2297L36.797 30.2078L36.7017 30.1125Z" fill="#64C7C7"/>
<path d="M36.606 30.0172L42.963 23.0391L43.0583 23.1344L36.7013 30.1125L36.606 30.0172Z" fill="#63C6C6"/>
<path d="M36.5107 29.9219L42.8678 22.9438L42.9631 23.0391L36.6061 30.0172L36.5107 29.9219Z" fill="#60C6C6"/>
<path d="M36.4155 29.8266L42.7726 22.8484L42.8679 22.9438L36.5108 29.9219L36.4155 29.8266Z" fill="#60C6C5"/>
<path d="M36.3203 29.7313L42.6773 22.7532L42.7727 22.8485L36.4156 29.8266L36.3203 29.7313Z" fill="#5FC6C5"/>
<path d="M36.2251 29.636L42.5821 22.6578L42.6774 22.7531L36.3204 29.7313L36.2251 29.636Z" fill="#5FC6C5"/>
<path d="M36.1294 29.5406L42.4864 22.5625L42.5817 22.6578L36.2247 29.6359L36.1294 29.5406Z" fill="#5CC5C4"/>
<path d="M36.0342 29.4453L42.3912 22.4672L42.4865 22.5625L36.1295 29.5407L36.0342 29.4453Z" fill="#5AC5C4"/>
<path d="M35.939 29.35L42.296 22.3719L42.3913 22.4672L36.0343 29.4453L35.939 29.35Z" fill="#5AC5C4"/>
<path d="M35.8438 29.2555L42.2008 22.2766L42.2961 22.3719L35.9391 29.35L35.8438 29.2555Z" fill="#57C4C4"/>
<path d="M35.7485 29.1594L42.1056 22.1813L42.2009 22.2766L35.8438 29.2555L35.7485 29.1594Z" fill="#58C4C3"/>
<path d="M35.6528 29.0648L42.0099 22.0859L42.1052 22.1812L35.7481 29.1594L35.6528 29.0648Z" fill="#55C4C3"/>
<path d="M35.5577 28.9688L41.9147 21.9906L42.0101 22.0859L35.653 29.0649L35.5577 28.9688ZM35.4624 28.8742L41.8194 21.8953L41.9147 21.9906L35.5577 28.9688L35.4624 28.8742Z" fill="#53C3C2"/>
<path d="M35.3672 28.7782L41.7242 21.8L41.8195 21.8954L35.4625 28.8743L35.3672 28.7782Z" fill="#52C3C2"/>
<path d="M35.272 28.6836L41.629 21.7047L41.7243 21.8L35.3673 28.7781L35.272 28.6836Z" fill="#50C3C2"/>
<path d="M35.1763 28.5875L41.5333 21.6094L41.6286 21.7047L35.2716 28.6836L35.1763 28.5875Z" fill="#50C1C0"/>
<path d="M35.0811 28.493L41.4381 21.5141L41.5334 21.6094L35.1764 28.5875L35.0811 28.493Z" fill="#4DC2C1"/>
<path d="M34.9858 28.3969L41.3429 21.4188L41.4382 21.5141L35.0812 28.493L34.9858 28.3969Z" fill="#4CC2C0"/>
<path d="M34.8906 28.3016L41.2477 21.3235L41.343 21.4188L34.9859 28.3969L34.8906 28.3016Z" fill="#4BC0BF"/>
<path d="M34.7954 28.2063L41.1524 21.2281L41.2478 21.3235L34.8907 28.3024L34.7954 28.2063Z" fill="#47C1BE"/>
<path d="M34.6997 28.1109L41.0567 21.1328L41.152 21.2281L34.795 28.2062L34.6997 28.1109Z" fill="#46C0BE"/>
<path d="M34.6045 28.0157L40.9615 21.0375L41.0568 21.1328L34.6998 28.1118L34.6045 28.0157Z" fill="#43C0BE"/>
<path d="M34.5093 27.9211L40.8663 20.9422L40.9616 21.0375L34.6046 28.0156L34.5093 27.9211Z" fill="#41C0BE"/>
<path d="M34.4141 27.825L40.7711 20.8469L40.8664 20.9422L34.5094 27.9211L34.4141 27.825Z" fill="#40BFBD"/>
<path d="M34.3188 27.7297L40.6759 20.7516L40.7712 20.8469L34.4142 27.825L34.3188 27.7297Z" fill="#3BBFBD"/>
<path d="M34.2231 27.6344L40.5802 20.6562L40.6755 20.7516L34.3185 27.7305L34.2231 27.6344Z" fill="#3CBFBC"/>
<path d="M34.1279 27.5399L40.485 20.561L40.5803 20.6563L34.2232 27.6344L34.1279 27.5399Z" fill="#39BFBC"/>
<path d="M34.0327 27.4438L40.3897 20.4656L40.4851 20.5609L34.128 27.5399L34.0327 27.4438Z" fill="#34BEBD"/>
<path d="M33.9375 27.3485L40.2945 20.3704L40.3898 20.4657L34.0328 27.4438L33.9375 27.3485Z" fill="#32BEBB"/>
<path d="M33.8423 27.2539L40.1993 20.275L40.2946 20.3703L33.9376 27.3485L33.8423 27.2539Z" fill="#2FBEBC"/>
<path d="M33.7466 27.1578L40.1036 20.1797L40.1989 20.275L33.8419 27.2539L33.7466 27.1578Z" fill="#2DBDBB"/>
<path d="M33.6514 27.0633L40.0084 20.0844L40.1037 20.1797L33.7467 27.1578L33.6514 27.0633Z" fill="#2BBDBA"/>
<path d="M33.5562 26.9672L39.9132 19.9891L40.0085 20.0844L33.6515 27.0633L33.5562 26.9672Z" fill="#24BCBB"/>
<path d="M33.4609 26.8727L39.818 19.8938L39.9133 19.9891L33.5562 26.9672L33.4609 26.8727Z" fill="#21BCB9"/>
<path d="M33.3657 26.7766L39.7228 19.7985L39.8181 19.8938L33.461 26.8727L33.3657 26.7766Z" fill="#18BBB9"/>
<path d="M33.27 26.682L39.627 19.7031L39.7224 19.7984L33.3653 26.7766L33.27 26.682Z" fill="#16BAB9"/>
<path d="M33.1748 26.586L39.5318 19.6078L39.6271 19.7032L33.2701 26.6821L33.1748 26.586Z" fill="#11BAB7"/>
<path d="M33.0796 26.4914L39.4366 19.5125L39.5319 19.6078L33.1749 26.5859L33.0796 26.4914Z" fill="#03BBB8"/>
<path d="M32.9839 26.3953L39.3409 19.4172L39.4362 19.5125L33.0792 26.4914L32.9839 26.3953Z" fill="#06B8B6"/>
<path d="M32.8887 26.3008L39.2457 19.3219L39.341 19.4172L32.984 26.3953L32.8887 26.3008Z" fill="#06B8B6"/>
<path d="M32.7935 26.2047L39.1505 19.2266L39.2458 19.3219L32.8888 26.3008L32.7935 26.2047Z" fill="#06B8B6"/>
<path d="M32.6982 26.1102L39.0553 19.1313L39.1506 19.2266L32.7936 26.2047L32.6982 26.1102Z" fill="#00B7B6"/>
<path d="M32.603 26.0141L38.9601 19.0359L39.0554 19.1313L32.6983 26.1102L32.603 26.0141Z" fill="#03B7B5"/>
<path d="M32.5078 25.9196L38.8648 18.9407L38.9602 19.036L32.6031 26.0141L32.5078 25.9196Z" fill="#04B7B4"/>
<path d="M32.4126 25.8235L38.7696 18.8453L38.8649 18.9406L32.5079 25.9196L32.4126 25.8235Z" fill="#00B6B5"/>
<path d="M32.3169 25.7289L38.6739 18.75L38.7692 18.8453L32.4122 25.8234L32.3169 25.7289Z" fill="#00B6B5"/>
<path d="M32.2217 25.6329L38.5787 18.6547L38.674 18.75L32.317 25.7289L32.2217 25.6329Z" fill="#00B6B5"/>
<path d="M32.1266 25.5383L38.4836 18.5594L38.5789 18.6547L32.2219 25.6329L32.1266 25.5383ZM32.0312 25.443L38.3883 18.4641L38.4836 18.5594L32.1266 25.5383L32.0312 25.443Z" fill="#03B6B4"/>
<path d="M31.936 25.3469L38.2931 18.3688L38.3884 18.4641L32.0313 25.443L31.936 25.3469Z" fill="#05B6B2"/>
<path d="M31.8403 25.2523L38.1974 18.2734L38.2927 18.3695L31.9356 25.3477L31.8403 25.2523Z" fill="#01B5B1"/>
<path d="M31.7452 25.1562L36.1593 20.3117L38.1976 18.2734L31.8405 25.2523L31.7452 25.1562ZM31.6499 25.0617L34.1124 22.3578L36.1593 20.3117L31.7452 25.1562L31.6499 25.0617Z" fill="#01B5B1"/>
<path d="M31.5547 24.9657L32.0664 24.4047L34.1125 22.3578L31.65 25.0618L31.5547 24.9657Z" fill="#00B4B1"/>
<path d="M32.0665 24.4047L31.5548 24.9657L31.5298 24.9414L32.0665 24.4047Z" fill="#00B4B1"/>
<path d="M16.5553 20.1758L11.7061 25.0617L16.5912 29.911L20.7248 29.8961L16.3904 25.5969L37.792 25.5172L35.9162 27.4055L37.9834 27.3977L40.4084 24.9555L37.9654 22.5305L35.8982 22.5383L37.7881 24.4133L16.3865 24.4922L20.6881 20.1609L16.5553 20.1758Z" fill="#244B5A"/>
</g>
<defs>
<clipPath id="clip0_402_2230">
<rect width="40" height="40" fill="white" transform="translate(5 5)"/>
</clipPath>
</defs>
</svg>
