<svg width="50" height="50" viewBox="0 0 50 50" fill="none" xmlns="http://www.w3.org/2000/svg">
<rect width="50" height="50" rx="25" fill="#E9EFF7"/>
<g clip-path="url(#clip0_402_2230)">
<path d="M37.3756 17.4502C37.2047 16.9009 36.7921 16.4541 36.2769 16.1807L25.8155 11.1709C25.5396 11.0342 25.232 11 24.9561 11C24.6803 11 24.3726 11 24.0992 11.0684L13.6353 16.1123C13.1202 16.3516 12.7442 16.7983 12.6051 17.3818L10.0343 28.6685C9.93172 29.252 10.0684 29.8355 10.4127 30.3164L17.6514 39.269C18.064 39.6816 18.6475 39.9551 19.2286 39.9893H30.7545C31.3721 40.0576 31.9556 39.7842 32.3316 39.269L39.5704 30.3164C39.9146 29.8355 40.0513 29.252 39.983 28.6685L37.3756 17.4502Z" fill="#326DE6"/>
<path d="M35.7787 27.9556C35.7445 27.9556 35.7104 27.9556 35.7104 27.9214C35.7104 27.8872 35.642 27.8872 35.5736 27.8872C35.4369 27.853 35.3002 27.853 35.161 27.853C35.0927 27.853 35.0243 27.853 34.956 27.8189H34.9218C34.5434 27.7847 34.1332 27.7163 33.7548 27.6138C33.6523 27.5796 33.5497 27.4771 33.5155 27.3745L33.2421 27.3062C33.3788 26.3101 33.3105 25.2822 33.1054 24.2862C32.8661 23.2901 32.4535 22.3306 31.9042 21.4737L32.1093 21.2686V21.2344C32.1093 21.1319 32.1435 20.9951 32.2118 20.9268C32.5194 20.6533 32.8295 20.4458 33.1713 20.2407C33.2397 20.2066 33.308 20.1724 33.3764 20.1382C33.5131 20.0698 33.6156 20.0015 33.7548 19.9331C33.789 19.8989 33.8232 19.8989 33.8573 19.8648C33.8915 19.8306 33.8573 19.8306 33.8573 19.7964C34.165 19.5571 34.2358 19.1445 33.9941 18.8369C33.8915 18.7002 33.6864 18.5977 33.5131 18.5977C33.3422 18.5977 33.1689 18.666 33.0321 18.7686L32.998 18.8028C32.9638 18.8369 32.9296 18.8711 32.8954 18.8711C32.7929 18.9737 32.6903 19.0762 32.622 19.1787C32.5878 19.2471 32.5194 19.2813 32.4853 19.3154C32.246 19.5889 31.936 19.8648 31.6283 20.0698C31.56 20.104 31.4916 20.1382 31.4233 20.1382C31.3891 20.1382 31.3207 20.1382 31.2865 20.104H31.2524L30.9789 20.2749C30.7055 20.0015 30.3954 19.7256 30.122 19.4522C28.8525 18.4561 27.2753 17.8408 25.6615 17.6675L25.6274 17.3941V17.4282C25.5248 17.3599 25.4906 17.2573 25.4565 17.1548C25.4565 16.7764 25.4565 16.4004 25.5248 15.9878V15.9536C25.5248 15.8853 25.559 15.8169 25.559 15.7486C25.5932 15.6118 25.5932 15.4751 25.6274 15.336V15.126C25.6615 14.7818 25.3881 14.44 25.0439 14.4058C24.8388 14.3716 24.6313 14.4741 24.4604 14.645C24.3236 14.7818 24.2553 14.9527 24.2553 15.126V15.2969C24.2553 15.4336 24.2895 15.5703 24.3236 15.7095C24.3578 15.7779 24.3578 15.8462 24.3578 15.9146V15.9487C24.4262 16.3272 24.4262 16.7031 24.4262 17.1157C24.392 17.2183 24.3578 17.3208 24.2553 17.3892V17.4575L24.2211 17.731C23.8427 17.7652 23.4667 17.8335 23.0541 17.9019C21.4428 18.2461 19.9657 19.103 18.8354 20.3042L18.6303 20.1675H18.5961C18.5619 20.1675 18.5277 20.2017 18.4594 20.2017C18.391 20.2017 18.3227 20.1675 18.2543 20.1333C17.9467 19.8941 17.6366 19.6182 17.3974 19.3447C17.3632 19.2764 17.2948 19.2422 17.2607 19.208C17.1581 19.1055 17.0898 19.0029 16.9872 18.9004C16.953 18.8662 16.9189 18.8662 16.8847 18.832C16.8505 18.7979 16.8505 18.7979 16.8505 18.7979C16.7138 18.6953 16.5429 18.627 16.3695 18.627C16.1645 18.627 15.9911 18.6953 15.8886 18.8662C15.6835 19.1738 15.7519 19.5864 16.0253 19.8257C16.0595 19.8257 16.0595 19.8599 16.0595 19.8599C16.0595 19.8599 16.1278 19.9282 16.162 19.9282C16.2646 19.9966 16.4013 20.065 16.5404 20.1333C16.6088 20.1675 16.6772 20.2017 16.7455 20.2359C17.0898 20.4409 17.4316 20.6485 17.705 20.9219C17.7734 20.9903 17.8417 21.127 17.8075 21.2295V21.1953L18.0126 21.4004C17.9784 21.4688 17.9443 21.5029 17.9101 21.5713C16.8456 23.2534 16.4013 25.2432 16.7089 27.1987L16.4355 27.2671C16.4355 27.3013 16.4013 27.3013 16.4013 27.3013C16.3671 27.4038 16.2646 27.4722 16.162 27.5405C15.7836 27.6431 15.4076 27.7114 14.995 27.7456C14.9267 27.7456 14.8583 27.7456 14.79 27.7798C14.6532 27.7798 14.5165 27.814 14.3774 27.814C14.3432 27.814 14.309 27.8482 14.2406 27.8482C14.2065 27.8482 14.2065 27.8482 14.1723 27.8823C13.7939 27.9507 13.5546 28.2949 13.623 28.6709C13.6913 28.9785 14.0014 29.1861 14.309 29.1519C14.3774 29.1519 14.4115 29.1519 14.4799 29.1177C14.5141 29.1177 14.5141 29.1177 14.5141 29.0835C14.5141 29.0493 14.6166 29.0835 14.6508 29.0835C14.7875 29.0493 14.9242 28.981 15.0292 28.9468C15.0976 28.9126 15.1659 28.8784 15.2343 28.8784H15.2685C15.6469 28.7417 15.9887 28.6392 16.4013 28.5708H16.4355C16.538 28.5708 16.6405 28.605 16.7089 28.6734C16.7431 28.6734 16.7431 28.7075 16.7431 28.7075L17.0507 28.6734C17.5658 30.2505 18.5253 31.6592 19.8632 32.687C20.1708 32.9263 20.4467 33.1338 20.7885 33.3047L20.6176 33.544C20.6176 33.5781 20.6518 33.5781 20.6518 33.5781C20.7201 33.6807 20.7201 33.8174 20.686 33.9224C20.5492 34.2666 20.3417 34.6084 20.1366 34.9185V34.9527C20.1025 35.021 20.0683 35.0552 19.9999 35.1236C19.9316 35.1919 19.8632 35.3286 19.7607 35.4678C19.7265 35.502 19.7265 35.5362 19.6923 35.5703C19.6923 35.5703 19.6923 35.6045 19.6581 35.6045C19.4872 35.9487 19.6239 36.3589 19.9316 36.5298C19.9999 36.564 20.1025 36.5982 20.1708 36.5982C20.4443 36.5982 20.686 36.4273 20.8227 36.1856C20.8227 36.1856 20.8227 36.1514 20.8569 36.1514C20.8569 36.1172 20.891 36.083 20.9252 36.0488C20.9594 35.9121 21.0277 35.8096 21.0619 35.6704L21.1303 35.4654C21.2328 35.0869 21.4037 34.7451 21.5771 34.4009C21.6454 34.2984 21.748 34.23 21.8505 34.1958C21.8847 34.1958 21.8847 34.1958 21.8847 34.1616L22.0214 33.8882C22.9809 34.2666 23.977 34.4375 25.0048 34.4375C25.6225 34.4375 26.2402 34.3692 26.8578 34.1983C27.2362 34.1299 27.6122 33.9932 27.9565 33.8906L28.0932 34.1299C28.1274 34.1299 28.1274 34.1299 28.1274 34.1641C28.2299 34.1983 28.3324 34.2666 28.4008 34.3692C28.5717 34.7134 28.745 35.0552 28.8476 35.4336V35.4678L28.9159 35.6729C28.9501 35.8096 28.9843 35.9463 29.0527 36.0513C29.0868 36.0855 29.0868 36.1196 29.121 36.1538C29.121 36.1538 29.121 36.188 29.1552 36.188C29.2919 36.4273 29.5336 36.6006 29.807 36.6006C29.9096 36.6006 29.9779 36.5664 30.0805 36.5322C30.2172 36.4639 30.3539 36.3272 30.3881 36.1538C30.4223 35.9829 30.4223 35.8096 30.3539 35.6387C30.3539 35.6045 30.3197 35.6045 30.3197 35.6045C30.3197 35.5703 30.2856 35.5362 30.2514 35.502C30.183 35.3653 30.1147 35.2627 30.0121 35.1577C29.9779 35.0894 29.9438 35.0552 29.8754 34.9868V34.9185C29.6361 34.6109 29.4628 34.2666 29.3261 33.9224C29.2919 33.8198 29.2919 33.6831 29.3603 33.5781C29.3603 33.544 29.3944 33.544 29.3944 33.544L29.2919 33.2705C31.0424 32.2061 32.3803 30.5606 32.998 28.605L33.2714 28.6392C33.3056 28.6392 33.3056 28.605 33.3056 28.605C33.3739 28.5366 33.4765 28.5025 33.579 28.5025H33.6132C33.9916 28.5708 34.3676 28.6734 34.7118 28.8101H34.746C34.8144 28.8443 34.8827 28.8784 34.9511 28.8784C35.0878 28.9468 35.1903 29.0152 35.3295 29.0493C35.3637 29.0493 35.3979 29.0835 35.4662 29.0835C35.5004 29.0835 35.5004 29.0835 35.5346 29.1177C35.6029 29.1519 35.6371 29.1519 35.7055 29.1519C36.0131 29.1519 36.289 28.9468 36.3915 28.6709C36.3622 28.2998 36.0863 28.0239 35.7787 27.9556ZM25.8642 26.8911L24.9389 27.3379L24.0136 26.8911L23.7743 25.895L24.4262 25.0723H25.4565L26.1083 25.895L25.8642 26.8911ZM31.455 24.6621C31.6259 25.3823 31.6601 26.1026 31.5917 26.8228L28.3324 25.8975C28.0248 25.8291 27.8515 25.5191 27.9198 25.2114C27.954 25.1089 27.9882 25.0405 28.0566 24.9722L30.6298 22.6382C31.0082 23.2559 31.2841 23.9419 31.455 24.6621ZM29.602 21.3687L26.7895 23.3584C26.5502 23.4951 26.206 23.461 26.0351 23.2217C25.9667 23.1533 25.9325 23.085 25.9325 22.9824L25.7275 19.5181C27.2362 19.689 28.5741 20.3408 29.602 21.3687ZM23.3935 19.6182L24.0795 19.4815L23.9086 22.9116C23.9086 23.2193 23.6352 23.461 23.3251 23.461C23.2226 23.461 23.1542 23.4268 23.0517 23.3926L20.205 21.3687C21.0937 20.5117 22.1923 19.8941 23.3935 19.6182ZM19.2089 22.6382L21.748 24.9014C21.9872 25.1065 22.0214 25.4507 21.8163 25.69C21.748 25.7925 21.6796 25.8267 21.5429 25.8609L18.2152 26.8203C18.1103 25.3823 18.4521 23.9077 19.2089 22.6382ZM18.6254 28.4365L22.0214 27.853C22.2948 27.853 22.5707 28.0239 22.6049 28.2998C22.6391 28.4024 22.6391 28.5391 22.5707 28.6441L21.267 31.8008C20.0658 31.0098 19.1039 29.8086 18.6254 28.4365ZM26.4135 32.6895C25.9325 32.792 25.454 32.8604 24.9389 32.8604C24.2187 32.8604 23.4643 32.7237 22.7782 32.5161L24.4604 29.4619C24.6313 29.2569 24.9071 29.1885 25.1464 29.3252C25.2489 29.3936 25.3173 29.4619 25.4198 29.5645L27.0678 32.5503C26.8578 32.5869 26.6528 32.6211 26.4135 32.6895ZM30.5981 29.7061C30.0829 30.5288 29.3627 31.249 28.54 31.7642L27.2021 28.5391C27.1337 28.2656 27.2704 27.9898 27.5097 27.8872C27.6122 27.853 27.7148 27.8189 27.8173 27.8189L31.2475 28.4024C31.079 28.8809 30.8715 29.3277 30.5981 29.7061Z" fill="white"/>
</g>
<defs>
<clipPath id="clip0_402_2230">
<rect width="30" height="28.999" fill="white" transform="translate(10 11)"/>
</clipPath>
</defs>
</svg>
