<svg xmlns="http://www.w3.org/2000/svg" width="50" height="50" viewBox="0 0 50 50" fill="none">
<rect width="50" height="50" rx="25" fill="#D0E6FF"/>
<g clip-path="url(#clip0_402_2230)">
<path d="M32.6997 33.2951C32.9032 31.5995 32.8422 31.3508 34.1052 31.6255L34.4259 31.6536C35.3971 31.6978 36.6675 31.4974 37.4138 31.1507C39.0205 30.4052 39.9732 29.1605 38.389 29.4875C34.7752 30.233 34.5268 29.0094 34.5268 29.0094C38.3427 23.3475 39.9379 16.1603 38.561 14.4011C34.8055 9.60239 28.3048 11.8716 28.196 11.9305L28.1614 11.9369C27.4473 11.7887 26.6482 11.7002 25.7506 11.6857C24.1152 11.6588 22.8743 12.1144 21.9331 12.8284C21.9331 12.8284 10.3362 8.05061 10.8757 18.8369C10.9904 21.1315 14.1647 36.1994 17.9506 31.6482C19.3343 29.9839 20.6715 28.5768 20.6715 28.5768C21.3356 29.0179 22.1306 29.243 22.9644 29.1621L23.0288 29.1072C23.0086 29.3138 23.0175 29.5159 23.0546 29.7552C22.0795 30.8449 22.366 31.0362 20.4161 31.4376C18.4434 31.8442 19.6024 32.568 20.3589 32.7572C21.2762 32.9866 23.3984 33.3116 24.8327 31.3042L24.7756 31.5332C25.1582 31.8393 25.1323 33.7331 25.1866 35.0863C25.2409 36.4394 25.3315 37.7022 25.6073 38.4467C25.8831 39.191 26.2086 41.1087 28.7712 40.5594C30.9129 40.1005 32.5504 39.44 32.6997 33.2951Z" fill="black" stroke="black" stroke-width="3.35848"/>
<path d="M38.3897 29.4874C34.7756 30.2329 34.5271 29.0093 34.5271 29.0093C38.343 23.3471 39.9382 16.1597 38.5616 14.4007C34.8061 9.60228 28.3051 11.8716 28.1966 11.9305L28.1617 11.9368C27.4477 11.7886 26.6486 11.7003 25.7505 11.6856C24.1151 11.6588 22.8747 12.1143 21.9334 12.8281C21.9334 12.8281 10.3363 8.05058 10.8757 18.8368C10.9904 21.1315 14.1646 36.1994 17.9506 31.6482C19.3344 29.984 20.6715 28.5768 20.6715 28.5768C21.3356 29.018 22.1306 29.243 22.964 29.1622L23.0287 29.1072C23.0086 29.3139 23.0178 29.516 23.0547 29.7552C22.0793 30.8449 22.3659 31.0363 20.4162 31.4376C18.4433 31.8442 19.6023 32.5681 20.359 32.7573C21.2764 32.9867 23.3987 33.3116 24.8327 31.3042L24.7755 31.5333C25.1577 31.8393 25.426 33.5242 25.381 35.0516C25.3361 36.579 25.306 37.6276 25.6071 38.4467C25.9083 39.2658 26.2084 41.1087 28.7715 40.5595C30.9132 40.1005 32.0231 38.9111 32.1775 36.9272C32.287 35.5167 32.535 35.7252 32.5506 34.4642L32.7495 33.8672C32.9789 31.9553 32.7859 31.3385 34.1054 31.6254L34.4261 31.6535C35.3973 31.6977 36.6683 31.4973 37.4143 31.1506C39.0207 30.4051 39.9734 29.1604 38.3895 29.4874H38.3897Z" fill="#336791"/>
<path d="M24.9877 30.5834C24.8882 34.141 25.0127 37.7234 25.3609 38.5941C25.7092 39.4648 26.4546 41.1582 29.0179 40.6091C31.1594 40.15 31.9386 39.2615 32.2768 37.3004C32.5258 35.8575 33.0059 31.8504 33.0674 31.0294" stroke="white" stroke-width="1.11949" stroke-linecap="round" stroke-linejoin="round"/>
<path d="M21.9153 12.7487C21.9153 12.7487 10.3103 8.00553 10.8498 18.7918C10.9645 21.0864 14.1389 36.1549 17.9249 31.6035C19.3084 29.939 20.5596 28.6336 20.5596 28.6336" stroke="white" stroke-width="1.11949" stroke-linecap="round" stroke-linejoin="round"/>
<path d="M28.1839 11.8829C27.7822 12.0089 34.6393 9.37623 38.5363 14.3557C39.9128 16.1149 38.3177 23.3022 34.5018 28.9646" stroke="white" stroke-width="1.11949" stroke-linecap="round" stroke-linejoin="round"/>
<path d="M34.5017 28.9646C34.5017 28.9646 34.7504 30.1886 38.3646 29.4426C39.9481 29.1155 38.9951 30.3604 37.3891 31.1062C36.071 31.718 33.116 31.8747 33.0677 31.0294C32.9435 28.8485 34.6229 29.5111 34.5017 28.9646ZM34.5017 28.9646C34.3921 28.4724 33.6411 27.9894 33.1443 26.7848C32.7105 25.7335 27.1955 17.671 34.6737 18.8684C34.9477 18.8117 32.7233 11.7553 25.7248 11.6405C18.7279 11.5258 18.9574 20.2452 18.9574 20.2452" stroke="white" stroke-width="1.11949" stroke-linecap="round" stroke-linejoin="bevel"/>
<path d="M23.0291 29.7104C22.0536 30.8001 22.3405 30.9914 20.3906 31.3929C18.4177 31.7995 19.5768 32.5233 20.3333 32.7124C21.2507 32.9419 23.373 33.2669 24.807 31.259C25.2437 30.6476 24.8044 29.6721 24.2046 29.4235C23.9147 29.3034 23.5272 29.1529 23.0291 29.7104Z" stroke="white" stroke-width="1.11949" stroke-linecap="round" stroke-linejoin="round"/>
<path d="M22.9649 29.6914C22.8667 29.0508 23.1755 28.2884 23.5064 27.3964C24.0037 26.0582 25.1512 24.7197 24.2333 20.4747C23.5491 17.3113 18.9599 19.8163 18.957 20.2452C18.9542 20.674 19.1646 22.4194 18.8804 24.4518C18.5095 27.104 20.5679 29.347 22.9383 29.1175" stroke="white" stroke-width="1.11949" stroke-linecap="round" stroke-linejoin="round"/>
<path d="M21.8731 20.1809C21.8524 20.3274 22.1413 20.7183 22.518 20.7706C22.8941 20.823 23.216 20.5175 23.2364 20.3712C23.2568 20.2247 22.9682 20.0633 22.5914 20.0108C22.2151 19.9583 21.8931 20.0348 21.8732 20.1809H21.8731Z" fill="white" stroke="white" stroke-width="0.373162"/>
<path d="M33.3276 19.8822C33.348 20.0287 33.0595 20.4197 32.6827 20.4719C32.3064 20.5243 31.9845 20.2188 31.9639 20.0725C31.944 19.926 32.2326 19.7646 32.609 19.7122C32.9854 19.6597 33.3072 19.7361 33.3276 19.8823V19.8822Z" fill="white" stroke="white" stroke-width="0.186581"/>
<path d="M34.6733 18.8684C34.7353 20.0175 34.4258 20.8003 34.3868 22.0236C34.329 23.8017 35.2345 25.8368 33.8701 27.8745" stroke="white" stroke-width="1.11949" stroke-linecap="round" stroke-linejoin="round"/>
</g>
<defs>
<clipPath id="clip0_402_2230">
<rect width="32" height="32" fill="white" transform="translate(9 10)"/>
</clipPath>
</defs>
</svg>