<svg width="50" height="50" viewBox="0 0 50 50" fill="none" xmlns="http://www.w3.org/2000/svg">
<rect width="50" height="50" rx="25" fill="#EC635E"/>
<g clip-path="url(#clip0_1584_3039)">
<path d="M38.8187 32.1448C37.2181 33.008 28.9261 36.5351 27.1608 37.4872C25.3955 38.4395 24.4149 38.4303 23.0203 37.7406C21.6258 37.0509 12.8017 33.3634 11.2122 32.5773C10.4178 32.1846 10 31.8529 10 31.5397V28.4032C10 28.4032 21.4879 25.816 23.3425 25.1276C25.1969 24.4392 25.8404 24.4144 27.4186 25.0124C28.997 25.6107 38.4341 27.3722 39.9939 27.9632L39.9932 31.0554C39.9934 31.3654 39.6335 31.7055 38.8187 32.1448" fill="#912626"/>
<path d="M38.8181 29.0267C37.2176 29.8895 28.9259 33.4167 27.1606 34.3687C25.3954 35.3211 24.4147 35.3118 23.0203 34.6221C21.6257 33.9329 12.8019 30.2447 11.2125 29.4592C9.62306 28.6731 9.58978 28.1321 11.1511 27.4996C12.7124 26.8669 21.4878 23.3051 23.3426 22.6167C25.197 21.9286 25.8404 21.9035 27.4186 22.5018C28.9969 23.0999 37.2391 26.4939 38.7987 27.0849C40.3588 27.6765 40.4187 28.1636 38.8181 29.0267" fill="#C6302B"/>
<path d="M38.8187 27.0695C37.2181 27.9328 28.9261 31.4598 27.1608 32.4123C25.3955 33.3642 24.4149 33.355 23.0203 32.6653C21.6257 31.976 12.8017 28.2881 11.2122 27.502C10.4178 27.1093 10 26.7781 10 26.4648V23.328C10 23.328 21.4879 20.7408 23.3425 20.0524C25.1969 19.3641 25.8404 19.3391 27.4186 19.9373C28.9971 20.5355 38.4342 22.2966 39.9939 22.8877L39.9932 25.9802C39.9934 26.2901 39.6335 26.6303 38.8187 27.0695Z" fill="#912626"/>
<path d="M38.8181 23.9517C37.2176 24.8147 28.9259 28.3417 27.1606 29.2941C25.3954 30.2461 24.4147 30.2367 23.0203 29.5471C21.6257 28.8578 12.8019 25.1698 11.2125 24.3841C9.62306 23.5983 9.58978 23.0572 11.1511 22.4245C12.7124 21.7921 21.4879 18.2301 23.3426 17.5418C25.197 16.8536 25.8404 16.8286 27.4186 17.4268C28.9969 18.0249 37.2391 21.4187 38.7987 22.0098C40.3588 22.6014 40.4187 23.0886 38.8181 23.9517" fill="#C6302B"/>
<path d="M38.8187 21.8066C37.2181 22.6696 28.9261 26.1969 27.1608 27.1494C25.3955 28.1014 24.4149 28.092 23.0203 27.4024C21.6257 26.713 12.8017 23.025 11.2122 22.2393C10.4178 21.8462 10 21.515 10 21.202V18.065C10 18.065 21.4879 15.478 23.3425 14.7897C25.1969 14.1013 25.8404 14.0765 27.4186 14.6746C28.9971 15.2728 38.4342 17.0339 39.9939 17.625L39.9932 20.7174C39.9934 21.0271 39.6335 21.3672 38.8187 21.8066Z" fill="#912626"/>
<path d="M38.8181 18.6886C37.2175 19.5516 28.9258 23.0789 27.1605 24.0309C25.3953 24.9829 24.4147 24.9735 23.0202 24.2842C21.6257 23.5945 12.8019 19.9068 11.2126 19.1209C9.623 18.3352 9.58984 17.794 11.151 17.1614C12.7124 16.5289 21.4878 12.9674 23.3425 12.2789C25.197 11.5905 25.8403 11.5658 27.4185 12.164C28.9968 12.7622 37.2391 16.156 38.7986 16.7471C40.3588 17.3382 40.4186 17.8255 38.8181 18.6886" fill="#C6302B"/>
<path d="M28.6621 15.6373L26.0833 15.9142L25.506 17.3513L24.5737 15.7477L21.5959 15.4708L23.8178 14.6419L23.1512 13.3694L25.2314 14.2111L27.1925 13.5468L26.6624 14.8626L28.6621 15.6373V15.6373ZM25.3521 22.6091L20.5394 20.5441L27.4356 19.4489L25.3521 22.6091V22.6091ZM18.6796 16.4361C20.7153 16.4361 22.3656 17.0979 22.3656 17.9141C22.3656 18.7306 20.7153 19.3923 18.6796 19.3923C16.6439 19.3923 14.9937 18.7305 14.9937 17.9141C14.9937 17.0979 16.6439 16.4361 18.6796 16.4361Z" fill="white"/>
<path d="M31.7097 16.0302L35.7912 17.6988L31.7132 19.3658L31.7097 16.03" fill="#621B1C"/>
<path d="M27.1943 17.8779L31.7098 16.03L31.7133 19.3657L31.2706 19.5448L27.1943 17.8779Z" fill="#9A2928"/>
</g>
<defs>
<clipPath id="clip0_1584_3039">
<rect width="30" height="26.6667" fill="white" transform="translate(10 11.6667)"/>
</clipPath>
</defs>
</svg>
