<svg xmlns="http://www.w3.org/2000/svg" width="50" height="50" viewBox="0 0 50 50" fill="none">
<rect width="50" height="50" rx="25" fill="#43b02a"/>
<g clip-path="url(#clip0_402_2230)">
<rect x="5" y="5" width="40" height="40" rx="7" fill="white"/>
<g clip-path="url(#clip1_402_2230)">
<path d="M31.4385 30.3333C30.6664 30.3104 29.9136 30.5658 29.33 31.0489C28.7463 31.5319 28.3747 32.2071 28.289 32.94C28.287 32.9542 28.2882 32.9687 28.2926 32.9824C28.297 32.9961 28.3044 33.0088 28.3143 33.0195C28.3242 33.0303 28.3365 33.0388 28.3502 33.0447C28.3639 33.0505 28.3788 33.0535 28.3938 33.0533H34.4901C34.5045 33.0534 34.5187 33.0506 34.5319 33.0451C34.5451 33.0397 34.557 33.0317 34.5668 33.0217C34.5766 33.0117 34.5842 32.9999 34.589 32.987C34.5938 32.9741 34.5958 32.9604 34.5949 32.9467C34.5359 32.2018 34.1711 31.5093 33.58 31.0199C32.9889 30.5305 32.2192 30.2838 31.4385 30.3333Z" fill="#43b02a"/>
<path d="M44.5112 10.7733L31.5363 24.6533C31.4991 24.6911 31.4542 24.7211 31.4044 24.7417C31.3545 24.7622 31.3008 24.7728 31.2465 24.7728C31.1922 24.7728 31.1385 24.7622 31.0887 24.7417C31.0388 24.7211 30.9939 24.6911 30.9567 24.6533L24.3506 18.1533C24.2883 18.0907 24.2502 18.0097 24.2426 17.9237C24.235 17.8377 24.2583 17.7517 24.3087 17.68L26.4944 15.0133C26.5287 14.9643 26.5745 14.9237 26.6282 14.8945C26.6818 14.8653 26.7418 14.8484 26.8034 14.8452C26.8651 14.8419 26.9267 14.8524 26.9833 14.8758C27.04 14.8992 27.0902 14.9349 27.1299 14.98L30.838 18.88C30.8754 18.921 30.9215 18.9539 30.9733 18.9764C31.0251 18.9989 31.0813 19.0106 31.1383 19.0106C31.1952 19.0106 31.2514 18.9989 31.3032 18.9764C31.355 18.9539 31.4012 18.921 31.4385 18.88L41.8087 5.42C41.8378 5.38039 41.8552 5.33395 41.8588 5.28565C41.8624 5.23735 41.8522 5.18903 41.8292 5.14586C41.8062 5.10269 41.7714 5.0663 41.7284 5.04061C41.6854 5.01491 41.6359 5.00087 41.5852 5H5.30726C5.22577 5 5.14762 5.0309 5.09 5.08592C5.03237 5.14093 5 5.21554 5 5.29333V44.7067C5 44.7845 5.03237 44.8591 5.09 44.9141C5.14762 44.9691 5.22577 45 5.30726 45H44.6927C44.7742 45 44.8524 44.9691 44.91 44.9141C44.9676 44.8591 45 44.7845 45 44.7067V10.9533C45.0008 10.8989 44.9841 10.8455 44.9521 10.8003C44.9201 10.7552 44.8745 10.7205 44.8212 10.7009C44.768 10.6813 44.7097 10.6777 44.6543 10.6907C44.5989 10.7036 44.5489 10.7325 44.5112 10.7733ZM16.1732 40.6133C13.5775 40.725 11.0389 39.8638 9.09916 38.2133C9.03265 38.1516 8.99178 38.069 8.98408 37.9808C8.97637 37.8926 9.00237 37.8047 9.05726 37.7333L10.5866 35.6667C10.6185 35.6235 10.6597 35.5875 10.7075 35.561C10.7553 35.5345 10.8086 35.5181 10.8636 35.5131C10.9186 35.508 10.9741 35.5143 11.0264 35.5316C11.0786 35.5489 11.1263 35.5768 11.1662 35.6133C12.5741 36.8617 14.4263 37.5528 16.3478 37.5467C18.3659 37.5467 19.3575 36.6533 19.3575 35.7133C19.3575 32.7933 9.40642 34.8 9.40642 28.5867C9.40642 25.84 11.8925 23.5667 15.9637 23.5667C18.312 23.4979 20.6069 24.2439 22.4232 25.6667C22.4964 25.7284 22.5423 25.8145 22.5514 25.9074C22.5604 26.0003 22.5321 26.093 22.4721 26.1667L20.8939 28.1667C20.863 28.2066 20.824 28.2402 20.7791 28.2653C20.7343 28.2904 20.6846 28.3066 20.633 28.3128C20.5814 28.319 20.529 28.3152 20.479 28.3015C20.4291 28.2879 20.3825 28.2647 20.3422 28.2333C18.9991 27.2141 17.3302 26.6658 15.6145 26.68C14.0363 26.68 13.1494 27.3467 13.1494 28.34C13.1494 30.96 23.0726 29.2067 23.0726 35.3667C23.0796 38.3333 20.824 40.6133 16.1732 40.6133ZM37.8911 34.8867C37.8911 34.9733 37.855 35.0564 37.7908 35.1177C37.7267 35.1789 37.6396 35.2133 37.5489 35.2133H28.4707C28.4557 35.2132 28.4408 35.2162 28.4271 35.222C28.4134 35.2278 28.4011 35.2364 28.3912 35.2472C28.3813 35.2579 28.3739 35.2706 28.3695 35.2843C28.3651 35.298 28.3639 35.3125 28.3659 35.3267C28.5202 36.1339 28.981 36.8585 29.6601 37.3616C30.3391 37.8647 31.1887 38.111 32.0461 38.0533C33.1783 38.0294 34.2773 37.6835 35.2025 37.06C35.2389 37.0323 35.2809 37.012 35.3259 37.0006C35.3709 36.9892 35.4179 36.9869 35.4639 36.9938C35.5098 37.0007 35.5538 37.0167 35.593 37.0407C35.6322 37.0647 35.6656 37.0963 35.6913 37.1333L36.7947 38.68C36.8435 38.7482 36.8634 38.8315 36.8504 38.9131C36.8374 38.9947 36.7926 39.0687 36.7249 39.12C35.2607 40.1368 33.486 40.6641 31.676 40.62C27.7654 40.62 24.8115 38.1067 24.8115 34.1733C24.7849 33.3293 24.938 32.4888 25.2616 31.7029C25.5852 30.917 26.0725 30.2019 26.6941 29.6011C27.3156 29.0002 28.0585 28.5261 28.8776 28.2073C29.6967 27.8886 30.5751 27.7318 31.4595 27.7467C35.2863 27.7467 37.898 30.4867 37.898 34.5L37.8911 34.8867Z" fill="#43b02a"/>
</g>
</g>
<defs>
<clipPath id="clip0_402_2230">
<rect x="5" y="5" width="40" height="40" rx="7" fill="white"/>
</clipPath>
<clipPath id="clip1_402_2230">
<rect width="40" height="40" fill="white" transform="translate(5 5)"/>
</clipPath>
</defs>
</svg>