<svg width="50" height="50" viewBox="0 0 50 50" fill="none" xmlns="http://www.w3.org/2000/svg">
<rect width="50" height="50" rx="25" fill="#FFEDEE"/>
<g clip-path="url(#clip0_1584_3106)">
<path d="M25.0145 34.8233C30.4317 34.8233 34.8233 30.4318 34.8233 25.0147C34.8233 19.5975 30.4317 15.206 25.0145 15.206C19.5974 15.206 15.206 19.5975 15.206 25.0147C15.206 30.4318 19.5974 34.8233 25.0145 34.8233ZM25.0145 11.6959C32.3702 11.6959 38.3333 17.659 38.3333 25.0147C38.3333 32.3704 32.3702 38.3333 25.0145 38.3333C17.6589 38.3333 11.6959 32.3704 11.6959 25.0147C11.6959 17.659 17.6589 11.6959 25.0146 11.6959H25.0145Z" fill="#CF272D"/>
<path d="M24.467 21.6976C24.467 20.1682 23.2271 18.9283 21.6976 18.9283C20.1681 18.9283 18.9283 20.1682 18.9283 21.6976C18.9283 23.2272 20.1681 24.467 21.6976 24.467C23.2271 24.467 24.467 23.2272 24.467 21.6976ZM24.467 28.3316C24.467 26.8022 23.2271 25.5622 21.6976 25.5622C20.1681 25.5622 18.9283 26.8022 18.9283 28.3316C18.9283 29.8611 20.1681 31.1009 21.6976 31.1009C23.2271 31.1009 24.467 29.8611 24.467 28.3316ZM31.1008 28.3316C31.1008 26.8022 29.8608 25.5622 28.3315 25.5622C26.802 25.5622 25.5621 26.8022 25.5621 28.3316C25.5621 29.8611 26.802 31.1009 28.3315 31.1009C29.8608 31.1009 31.1008 29.8611 31.1008 28.3316ZM31.1008 21.6977C31.1008 20.1682 29.8608 18.9284 28.3315 18.9284C26.802 18.9284 25.5621 20.1682 25.5621 21.6977C25.5621 23.2273 26.802 24.4671 28.3315 24.4671C29.8608 24.4671 31.1008 23.2273 31.1008 21.6977Z" fill="#CF272D"/>
</g>
<defs>
<clipPath id="clip0_1584_3106">
<rect width="26.6667" height="26.6667" fill="white" transform="matrix(-1 0 0 1 38.3333 11.6666)"/>
</clipPath>
</defs>
</svg>
